<svg xmlns="http://www.w3.org/2000/svg" width="13.33" height="20" viewBox="0 0 13.33 20">
  <g id="Group_6" data-name="Group 6" transform="translate(131.761 -179.127)" fill="currentColor">
    <path id="b" d="M-64.6,244.135a3.337,3.337,0,0,1,3.335-3.335,3.337,3.337,0,0,1,3.335,3.335,3.336,3.336,0,0,1-3.335,3.335A3.336,3.336,0,0,1-64.6,244.135Z" transform="translate(-60.501 -55.003)"/>
    <path id="c" d="M-131.9,311.435a3.337,3.337,0,0,1,3.335-3.335h3.335v3.335a3.337,3.337,0,0,1-3.335,3.335A3.337,3.337,0,0,1-131.9,311.435Z" transform="translate(0.139 -115.643)"/>
    <path id="d" d="M-64.6,173.41v6.66h3.335a3.337,3.337,0,0,0,3.335-3.335,3.337,3.337,0,0,0-3.335-3.335H-64.6Z" transform="translate(-60.501 5.727)"/>
    <path id="e" d="M-131.9,176.925a3.337,3.337,0,0,0,3.335,3.335h3.335V173.6h-3.335A3.322,3.322,0,0,0-131.9,176.925Z" transform="translate(0.139 5.547)"/>
    <path id="e_1_" d="M-131.9,244.225a3.337,3.337,0,0,0,3.335,3.335h3.335V240.9h-3.335A3.322,3.322,0,0,0-131.9,244.225Z" transform="translate(0.139 -55.093)"/>
  </g>
</svg>
