<svg xmlns="http://www.w3.org/2000/svg" xmlns:xlink="http://www.w3.org/1999/xlink" width="300" height="100" viewBox="0 0 300 100">
  <defs>
    <clipPath id="clip-Web_1920_1">
      <rect width="300" height="100"/>
    </clipPath>
  </defs>
  <g id="Web_1920_1" data-name="Web 1920 – 1" clip-path="url(#clip-Web_1920_1)">
    <rect width="300" height="100" fill="rgba(255,255,255,0)"/>
    <g id="figma-seeklogo.com" transform="translate(198.318 -153.221)">
      <path id="Path_23" data-name="Path 23" d="M104.6,211.4v31.863l4.1.031v-15.18h9.891v-4.006H108.7v-8.7h12.864V211.4Zm24.351,6.479a2.692,2.692,0,1,0-2.692-2.692,2.692,2.692,0,0,0,2.692,2.692Zm-2.1,4.006v21.409h4.1V221.885Zm19.312-.626c-5.446,0-9.233,4.6-9.233,10.078s3.787,10.078,9.233,10.078a8.034,8.034,0,0,0,6.041-2.535v2.848a6.432,6.432,0,0,1-6.354,6.51h-.063a6.479,6.479,0,0,1-3.631-1.221l-2.066,3.568a10.48,10.48,0,0,0,14.523-3.13,10.648,10.648,0,0,0,1.69-5.728V221.917h-4.1v1.909a8.057,8.057,0,0,0-6.041-2.567Zm-5.133,10.078a5.6,5.6,0,1,1,5.6,6.041A5.873,5.873,0,0,1,141.032,231.338Zm30.047-6.072a4.435,4.435,0,0,0-4.382,4.476v13.521h-4.1V221.854h4.1v1.972a6.452,6.452,0,0,1,5.29-2.566,7.064,7.064,0,0,1,6.354,3.6,7.867,7.867,0,0,1,6.51-3.6c4.664,0,7.574,3.756,7.574,8.419v13.584h-4.069V229.741a4.383,4.383,0,1,0-8.764,0v13.521h-4.131V229.741a4.455,4.455,0,0,0-4.382-4.476Zm43.193-.97a9.836,9.836,0,0,0-7.23-3.036c-6.1,0-10.423,5.164-10.423,11.3,0,6.166,4.319,11.3,10.423,11.3a10.135,10.135,0,0,0,7.23-3.036v2.441h4.1V221.854h-4.1V224.3Zm-13.553,8.263a6.795,6.795,0,1,1,6.761,7.293C203.881,239.882,200.72,236.658,200.72,232.558Z" transform="translate(-183.247 -26.592)" fill="#8c98a4"/>
      <path id="b" d="M-64.6,248.835a8.039,8.039,0,0,1,8.035-8.035,8.039,8.039,0,0,1,8.035,8.035,8.039,8.039,0,0,1-8.035,8.035A8.039,8.039,0,0,1-64.6,248.835Z" transform="translate(-51.114 -45.602)" fill="#8c98a4"/>
      <path id="c" d="M-131.9,316.135a8.039,8.039,0,0,1,8.035-8.035h8.035v8.035a8.039,8.039,0,0,1-8.035,8.035A8.039,8.039,0,0,1-131.9,316.135Z" transform="translate(0.139 -96.855)" fill="#8c98a4"/>
      <path id="d" d="M-64.6,173.424v16.047h8.035a8.039,8.039,0,0,0,8.035-8.035,8.039,8.039,0,0,0-8.035-8.035H-64.6Z" transform="translate(-51.114 5.727)" fill="#8c98a4"/>
      <path id="e" d="M-131.9,181.611a8.039,8.039,0,0,0,8.035,8.035h8.035V173.6h-8.035A8,8,0,0,0-131.9,181.611Z" transform="translate(0.139 5.575)" fill="#8c98a4"/>
      <path id="e_1_" d="M-131.9,248.911a8.039,8.039,0,0,0,8.035,8.035h8.035V240.9h-8.035A8,8,0,0,0-131.9,248.911Z" transform="translate(0.139 -45.678)" fill="#8c98a4"/>
    </g>
  </g>
</svg>
