<?xml version="1.0" encoding="UTF-8"?>
<svg width="20px" height="20px" viewBox="0 0 20 20" version="1.1" xmlns="http://www.w3.org/2000/svg" xmlns:xlink="http://www.w3.org/1999/xlink">
    <title>Icons ❤️/D.COMPLEMENTARY/02.Hands/Giving Happiness</title>
    <g id="❤️-Icons" stroke="none" stroke-width="1" fill="none" fill-rule="evenodd">
        <g id="01.CL-PRIMITIVES/01.icons/D.COMPLEMENTARY/02.Hands/Giving-Happiness" transform="translate(-2.000000, -2.000000)">
            <polygon id="Path" points="0 0 24 0 24 24 0 24"></polygon>
            <path d="M17,2 C19.7614237,2 22,4.23857625 22,7 C22,9.76142375 19.7614237,12 17,12 C14.2385763,12 12,9.76142375 12,7 C12,4.23857625 14.2385763,2 17,2 Z M17,3 C14.790861,3 13,4.790861 13,7 C13,9.209139 14.790861,11 17,11 C19.209139,11 21,9.209139 21,7 C21,4.790861 19.209139,3 17,3 Z M19.0902053,8.04777789 L19.1666023,8.05403597 C19.2420694,8.06861427 19.3132659,8.10803198 19.3668665,8.17119754 C19.4919346,8.31858384 19.4738422,8.5394518 19.3264559,8.66451993 C18.7674988,9.13883622 18.0715732,9.3964108 17.2501729,9.43932257 L17,9.4457583 L17,9.4457583 C16.0689816,9.4457583 15.2883969,9.18626785 14.6735441,8.66451993 C14.5261578,8.5394518 14.5080654,8.31858384 14.6331335,8.17119754 C14.704601,8.0869768 14.8073501,8.04497445 14.9097947,8.04777789 L14.9860775,8.05832198 C15.0362366,8.071006 15.0843455,8.09505317 15.1264559,8.13078693 C15.6085102,8.5398455 16.2279255,8.7457583 17,8.7457583 C17.7720745,8.7457583 18.3914898,8.5398455 18.8735441,8.13078693 C18.9367097,8.0771863 19.0133719,8.04988047 19.0902053,8.04777789 Z M15.2,5 C15.6418278,5 16,5.3581722 16,5.8 C16,6.2418278 15.6418278,6.6 15.2,6.6 C14.7581722,6.6 14.4,6.2418278 14.4,5.8 C14.4,5.3581722 14.7581722,5 15.2,5 Z M18.8,5 C19.2418278,5 19.6,5.3581722 19.6,5.8 C19.6,6.2418278 19.2418278,6.6 18.8,6.6 C18.3581722,6.6 18,6.2418278 18,5.8 C18,5.3581722 18.3581722,5 18.8,5 Z M6.23624984,20.1378637 L6.13263238,20.1818442 C6.01300163,20.2249808 5.88434005,20.2480983 5.75121338,20.2480983 L3.09915171,20.2480983 C2.49555273,20.2480983 2,19.7723539 2,19.1756104 L2,13.0724879 C2,12.4757444 2.49555273,12 3.09915171,12 L6.74744081,12.0062381 L6.74744081,12.6219884 L7.07491577,12.5546064 C7.50114246,12.477439 7.93327818,12.4385818 8.3676769,12.4385818 L15.2025204,12.4385818 C16.3973893,12.4385818 17.4361852,13.2813138 17.5558442,14.3972516 L17.5666966,14.5640035 C17.5708995,14.7301765 17.5552592,14.8943249 17.5207259,15.053858 L17.4955347,15.149712 L18.8072309,14.6542346 C19.4252093,14.4200461 20.1197533,14.4471341 20.7155394,14.7292021 C21.2999517,15.0018142 21.7300369,15.4879463 21.9110521,16.0901127 C22.2569689,17.2257633 21.5628965,18.402 20.3678197,18.7791968 L12.9013098,21.7006901 C11.8098083,22.1272277 10.5772558,22.0967952 9.51336455,21.6163504 L6.23624984,20.1378637 Z M6.739,13.729 L15.2025204,13.7291774 C15.7517821,13.7291774 16.2082696,14.0995067 16.2545953,14.5315228 C16.2795536,14.7695323 16.2006576,14.9975872 16.0260001,15.1817053 C15.8357441,15.3833106 15.5524943,15.5029588 15.2559176,15.5029588 L15.2559176,15.5029588 L11.9991851,15.5029588 L11.9995308,16.9 L11.9995308,16.9 L16.2545953,16.9 L19.2757858,15.8592286 C19.558622,15.7520455 19.8786388,15.7645265 20.1528117,15.8943187 C20.4078966,16.0133138 20.5827028,16.2109 20.6573634,16.4592518 C20.7911934,16.8986235 20.5070189,17.3802109 19.9273712,17.5647176 L19.9273712,17.5647176 L12.4192818,20.500878 C11.6589883,20.7979859 10.7971979,20.7767078 10.0579298,20.4428602 L10.0579298,20.4428602 L6.739,18.944 L6.739,13.729 Z M5.539,13.291 L5.539,18.957 L3.30834983,18.9578906 L3.30834983,13.2912544 L5.539,13.291 Z" id="🎨-COLOR" fill="#053840"></path>
        </g>
    </g>
</svg>