<?xml version="1.0" encoding="UTF-8"?>
<svg id="Layer_2" data-name="Layer 2" xmlns="http://www.w3.org/2000/svg" xmlns:xlink="http://www.w3.org/1999/xlink" viewBox="0 0 50 44.2">
  <defs>
    <style>
      .cls-1 {
        fill: url(#linear-gradient);
      }

      .cls-2 {
        mask: url(#mask);
      }

      .cls-3 {
        fill: #005c01;
      }

      .cls-4 {
        fill: #394f17;
      }

      .cls-5 {
        fill: url(#linear-gradient-3);
      }

      .cls-6 {
        fill: url(#linear-gradient-4);
      }

      .cls-7 {
        fill: url(#linear-gradient-2);
      }

      .cls-8 {
        fill: url(#linear-gradient-5);
      }

      .cls-9 {
        fill: #39d5ff;
      }

      .cls-9, .cls-10 {
        fill-rule: evenodd;
      }

      .cls-10 {
        fill: #b9f246;
      }

      .cls-11 {
        mask: url(#mask-3);
      }

      .cls-12 {
        mask: url(#mask-2);
      }

      .cls-13 {
        mask: url(#mask-5);
      }

      .cls-14 {
        mask: url(#mask-4);
      }

      .cls-15 {
        mask: url(#mask-1);
      }

      .cls-16 {
        mask: url(#mask-7);
      }

      .cls-17 {
        mask: url(#mask-6);
      }

      .cls-18 {
        mask: url(#mask-8);
      }

      .cls-19 {
        mask: url(#mask-9);
      }
    </style>
    <linearGradient id="linear-gradient" x1="22781" y1="12505.15" x2="23182.43" y2="13059.56" gradientTransform="translate(-1633.96 942.85) scale(.07 -.07)" gradientUnits="userSpaceOnUse">
      <stop offset="0" stop-color="#007b70"/>
      <stop offset="1" stop-color="#9c3"/>
    </linearGradient>
    <mask id="mask" x="13.68" y="30.77" width="2.43" height="1.4" maskUnits="userSpaceOnUse"/>
    <mask id="mask-1" x="14.23" y="28.39" width="2.74" height="1.23" maskUnits="userSpaceOnUse"/>
    <linearGradient id="linear-gradient-2" x1="22715.33" y1="12581.85" x2="23384.76" y2="12827.99" gradientTransform="translate(-1633.96 942.85) scale(.07 -.07)" gradientUnits="userSpaceOnUse">
      <stop offset="0" stop-color="#0057a0"/>
      <stop offset="1" stop-color="#22a7f0"/>
    </linearGradient>
    <linearGradient id="linear-gradient-3" x1="22865.46" y1="12758.48" x2="23318.08" y2="12774.36" xlink:href="#linear-gradient"/>
    <linearGradient id="linear-gradient-4" x1="22863.73" y1="12807.69" x2="23316.35" y2="12823.57" xlink:href="#linear-gradient"/>
    <linearGradient id="linear-gradient-5" x1="22862.39" y1="12845.95" x2="23315.01" y2="12861.83" xlink:href="#linear-gradient"/>
    <mask id="mask-2" x="19.3" y="16.19" width="2.6" height="6.21" maskUnits="userSpaceOnUse"/>
    <mask id="mask-3" x="22.94" y="9.24" width="3.33" height="4.97" maskUnits="userSpaceOnUse"/>
    <mask id="mask-4" x="28.09" y="6.24" width="4.64" height="2.72" maskUnits="userSpaceOnUse"/>
    <mask id="mask-5" x="23.88" y="29.54" width="4.98" height="1.87" maskUnits="userSpaceOnUse"/>
    <mask id="mask-6" x="31.58" y="27.89" width="4.41" height="3.09" maskUnits="userSpaceOnUse"/>
    <mask id="mask-7" x="37.85" y="22.82" width="3.62" height="5.2" maskUnits="userSpaceOnUse"/>
    <mask id="mask-8" x="14.74" y="-.04" width="28.68" height="26.25" maskUnits="userSpaceOnUse"/>
    <mask id="mask-9" x="24.41" y="10.53" width="25.63" height="24.23" maskUnits="userSpaceOnUse"/>
  </defs>
  <g id="Layer_1-2" data-name="Layer 1">
    <g id="Layer_1-3" data-name="Layer_1">
      <g id="_2147688813408" data-name=" 2147688813408">
        <path class="cls-1" d="M37.69,8.72c-.09-.06-.18-.13-.26-.19-.97-.68-1.96-1.24-2.96-1.63-1-.4-2-.63-2.96-.66-.97-.02-1.92,.15-2.85,.55-.94,.4-1.85,1.03-2.7,1.82-.85,.79-1.63,1.75-2.35,2.79-.35,.52-.69,1.07-1.02,1.63-.32,.56-.63,1.14-.92,1.73-.58,1.18-1.1,2.42-1.57,3.68-.47,1.26-.9,2.55-1.28,3.86-.19,.65-.38,1.31-.55,1.98l-.27,1.02c-.09,.34-.18,.69-.28,1.03-.38,1.37-.78,2.73-1.24,4.09-.46,1.35-.96,2.7-1.55,4.01-.58,1.32-1.26,2.6-2.07,3.82-.05,.08-.1,.15-.15,.23l-.16,.22c-.11,.15-.21,.3-.32,.44-.23,.29-.45,.58-.7,.85-.24,.28-.5,.53-.76,.79l-.41,.37-.1,.09-.11,.09-.21,.17c-.57,.45-1.18,.87-1.83,1.2-.64,.33-1.31,.61-2,.82-.68,.21-1.38,.36-2.08,.47-.7,.11-1.4,.17-2.1,.21v-.1c.68-.12,1.36-.25,2.03-.43,.67-.19,1.32-.41,1.95-.68,.63-.28,1.22-.6,1.78-.98,.56-.37,1.07-.81,1.55-1.28l.18-.18,.09-.09,.08-.09,.33-.38c.21-.26,.42-.52,.61-.8,.2-.27,.37-.56,.55-.84,.09-.14,.17-.29,.25-.44l.12-.22c.04-.07,.08-.15,.12-.22,.62-1.19,1.11-2.45,1.52-3.75,.41-1.3,.75-2.62,1.04-3.96,.29-1.34,.54-2.69,.75-4.06,.06-.34,.11-.68,.16-1.02l.15-1.03c.1-.71,.22-1.41,.34-2.12,.25-1.41,.54-2.82,.9-4.23,.72-2.81,1.64-5.63,3.07-8.35,.72-1.35,1.57-2.69,2.63-3.94,1.06-1.24,2.34-2.4,3.89-3.3,.77-.45,1.61-.82,2.48-1.1,.87-.28,1.78-.47,2.69-.56,1.83-.18,3.64,.04,5.3,.49,1.67,.45,3.21,1.11,4.63,1.87,.15,.08,.31,.17,.46,.25,.95,.54,1.56,1.38,1.76,2.46,.2,1.08-.07,2.08-.76,2.92l-.04,.05c-1.2,1.44-3.3,1.71-4.82,.61h0Z"/>
        <g class="cls-2">
          <path class="cls-3" d="M16.1,31.44c-.08,.24-.17,.47-.26,.71-.47-.15-.95-.3-1.43-.44-.24-.07-.48-.14-.72-.2,.06-.24,.12-.49,.18-.73,.25,.07,.5,.14,.76,.21,.49,.14,.98,.3,1.47,.45h0Z"/>
        </g>
        <g class="cls-15">
          <path class="cls-3" d="M16.95,28.89c-.07,.24-.15,.48-.23,.72-.56-.12-1.13-.23-1.69-.34-.26-.05-.53-.09-.8-.14,.05-.25,.1-.49,.15-.74,.26,.04,.53,.09,.79,.14,.6,.11,1.19,.23,1.78,.36h0Z"/>
        </g>
        <path class="cls-7" d="M50,13.78c-.01,1.72-.17,3.44-.5,5.15-.14,.74-.32,1.47-.52,2.19-.21,.73-.46,1.44-.74,2.15-.56,1.41-1.3,2.78-2.18,4.04-.89,1.26-1.95,2.4-3.14,3.38-1.19,.98-2.51,1.78-3.89,2.39-.69,.3-1.4,.56-2.11,.78-.71,.22-1.43,.38-2.15,.51-.72,.13-1.44,.21-2.16,.28-.72,.05-1.43,.08-2.14,.07-2.84-.04-5.6-.52-8.23-1.25l-.49-.14-.49-.15-.49-.15-.49-.16-.49-.16-.48-.17-.48-.17-.46-.17c-1.23-.44-2.48-.86-3.73-1.23-.31-.09-.63-.18-.94-.27-.31-.08-.63-.17-.94-.24-.63-.16-1.27-.29-1.9-.4-.64-.12-1.28-.2-1.92-.25-.32-.03-.64-.04-.96-.06h-.48c-.16,0-.32,0-.48,0-1.28,.05-2.56,.28-3.75,.79-1.19,.5-2.27,1.29-3.17,2.25l-.08-.07c.8-1.06,1.82-1.99,3.02-2.65,1.19-.67,2.54-1.05,3.89-1.25,.17-.02,.34-.05,.51-.06l.51-.05c.34-.02,.68-.04,1.02-.05,.68-.01,1.37,0,2.04,.06,.68,.05,1.36,.12,2.03,.21,.34,.04,.67,.1,1.01,.15,.33,.06,.67,.11,1,.17,1.33,.24,2.64,.54,3.95,.86l.49,.12,.47,.11,.47,.11,.47,.1,.47,.1,.47,.09,.47,.09,.48,.08c1.27,.21,2.54,.36,3.8,.43,1.26,.06,2.52,.05,3.75-.06,2.45-.23,4.81-.87,6.8-2.02,.99-.57,1.89-1.26,2.67-2.05,.78-.8,1.45-1.69,1.99-2.66,1.08-1.94,1.68-4.18,1.87-6.48,.11-1.33,.09-2.68-.04-4.03-.16-1.68,1.02-3.2,2.7-3.45h.02c.95-.15,1.83,.11,2.56,.74s1.1,1.46,1.09,2.43h0Z"/>
        <g>
          <path class="cls-5" d="M19.3,20.69l5.45,10.53c.61,.07,1.23,.12,1.84,.15,.76,.04,1.52,.05,2.27,.03l-7.87-15.2c-.32,.73-.62,1.48-.91,2.24-.28,.74-.54,1.49-.78,2.25h0Z"/>
          <path class="cls-6" d="M22.94,12.41l9.61,18.56c1.21-.25,2.37-.62,3.45-1.11L25.31,9.24c-.61,.65-1.19,1.39-1.72,2.17-.22,.33-.44,.67-.65,1.01h0Z"/>
          <path class="cls-8" d="M28.09,7.06l10.86,20.97c.3-.25,.59-.52,.86-.79,.63-.64,1.18-1.35,1.66-2.1L31.69,6.25c-.06,0-.13,0-.19,0-.97-.02-1.92,.15-2.85,.55-.19,.08-.37,.17-.55,.26h0Z"/>
        </g>
        <g>
          <g class="cls-12">
            <path class="cls-3" d="M19.3,20.69l.89,1.72c.22-.67,.45-1.33,.69-1.98,.32-.84,.65-1.67,1.02-2.48l-.91-1.75c-.32,.73-.62,1.48-.91,2.24-.28,.74-.54,1.49-.78,2.25h0Z"/>
          </g>
          <g class="cls-11">
            <path class="cls-3" d="M22.94,12.41l.93,1.79c.17-.28,.35-.55,.53-.81,.58-.84,1.2-1.63,1.87-2.32l-.95-1.84c-.61,.65-1.19,1.39-1.72,2.17-.22,.33-.44,.67-.65,1.01Z"/>
          </g>
          <g class="cls-14">
            <path class="cls-3" d="M28.09,7.06l.98,1.9c.12-.06,.25-.12,.37-.17,.94-.4,1.89-.57,2.85-.55,.14,0,.29,.01,.43,.02l-1.04-2.01c-.06,0-.13,0-.19,0-.97-.02-1.92,.15-2.85,.55-.19,.08-.37,.17-.55,.26h0Z"/>
          </g>
        </g>
        <g>
          <g class="cls-13">
            <path class="cls-4" d="M23.88,29.54l.87,1.68c.61,.07,1.23,.12,1.84,.15,.76,.04,1.52,.05,2.27,.03l-.92-1.77c-.95,.05-1.92,.05-2.88,0-.39-.02-.79-.05-1.18-.08Z"/>
          </g>
          <g class="cls-17">
            <path class="cls-4" d="M31.58,29.11l.97,1.87c1.21-.25,2.37-.62,3.45-1.11l-1.03-1.98c-1.05,.53-2.19,.93-3.39,1.22Z"/>
          </g>
          <g class="cls-16">
            <path class="cls-4" d="M37.85,25.91l1.1,2.12c.3-.25,.59-.52,.86-.79,.63-.64,1.18-1.35,1.66-2.1l-1.19-2.31h0c-.54,.98-1.21,1.87-1.99,2.66-.14,.14-.28,.28-.43,.42h0Z"/>
          </g>
        </g>
        <g class="cls-18">
          <path class="cls-10" d="M36.79,2.58c2.27,.55,5.08,2.16,4.6,4.66-.25,1.28-2.84,1.85-4.92,.66,.32,.19,.64,.4,.96,.63,.09,.06,.18,.12,.26,.19,1.52,1.1,3.62,.83,4.82-.61l.04-.05c.7-.84,.96-1.85,.76-2.92-.2-1.08-.8-1.92-1.76-2.46-.15-.09-.31-.17-.46-.25-1.42-.77-2.96-1.43-4.63-1.88-1.66-.44-3.47-.67-5.3-.49-.91,.09-1.82,.27-2.69,.56-.87,.28-1.71,.65-2.48,1.1-1.55,.9-2.83,2.06-3.89,3.3-1.06,1.25-1.91,2.58-2.63,3.94-1.43,2.72-2.36,5.53-3.07,8.35-.35,1.41-.65,2.82-.9,4.23-.13,.71-.24,1.41-.34,2.12l-.15,1.03c-.05,.34-.1,.68-.16,1.02-.02,.15-.05,.31-.07,.46C18.47,7.56,26.52,.12,36.79,2.58h0Z"/>
        </g>
        <g class="cls-19">
          <path class="cls-9" d="M48.36,15.29c-.42,12.08-10.91,20.4-23.91,18.72,1.95,.42,3.95,.67,6,.7,.71,0,1.43-.02,2.14-.07,.72-.06,1.44-.14,2.16-.28,.72-.13,1.44-.3,2.15-.51,.71-.22,1.42-.47,2.11-.77,1.38-.61,2.7-1.41,3.89-2.39,1.19-.98,2.25-2.12,3.14-3.38,.89-1.26,1.62-2.62,2.18-4.04,.28-.71,.53-1.42,.74-2.15,.21-.73,.38-1.46,.52-2.19,.33-1.71,.48-3.44,.5-5.15,0-.96-.37-1.8-1.09-2.43-.73-.63-1.6-.89-2.56-.75h-.02c-1.67,.25-2.86,1.77-2.7,3.45,.02,.24,.04,.47,.06,.71,.6-2.97,4.67-2.97,4.68,.52h0Z"/>
        </g>
      </g>
    </g>
  </g>
</svg>