<svg xmlns="http://www.w3.org/2000/svg" xmlns:xlink="http://www.w3.org/1999/xlink" width="300" height="100" viewBox="0 0 300 100">
  <defs>
    <clipPath id="clip-Web_1920_1">
      <rect width="300" height="100"/>
    </clipPath>
  </defs>
  <g id="Web_1920_1" data-name="Web 1920 – 1" clip-path="url(#clip-Web_1920_1)">
    <rect width="300" height="100" fill="rgba(255,255,255,0)"/>
    <g id="postcss-seeklogo.com" transform="translate(-14.046 125.654)">
      <g id="Group_1" data-name="Group 1" transform="translate(-48 -108.86)">
        <path id="Path_1" data-name="Path 1" d="M166.764,114.41c.09.068.246.112.09.245a3.5,3.5,0,0,0-.335.468c-.089.156-.156.2-.29.09q.252-.412.535-.8Zm44.868,23.352c0,.066.022.11.022.178.045-.089.045-.134.068-.178Zm0,.2v-.022Zm-4.553,8.69-3.885-21.479c-.066-.021-.155-.065-.312-.11a1.491,1.491,0,0,1,.09.222.937.937,0,0,0,.2-.044.083.083,0,0,1,.023-.068l3.885,21.481Zm-4.018-26.314a.621.621,0,0,0-.022.2.582.582,0,0,1,.024-.2Zm.022.445c-.022,0-.022,0-.044-.024v.022c.024.022.024.022.046,0Zm-.044.177V120.8c-.065.022-.133.022-.222.045.112.042.224.066.224.11Z" transform="translate(-65.822 -86.626)" fill="#8c98a4"/>
        <path id="Path_2" data-name="Path 2" d="M183.33,28.92c-.044-.869-.066-1.738-.156-2.607-.156-1.181-.312-2.384-.58-3.543a20.023,20.023,0,0,0-.87-2.785,33.419,33.419,0,0,0-1.384-3.186,49.1,49.1,0,0,0-3.058-4.658c-.694-.981-1.586-1.782-2.256-2.785a6.85,6.85,0,0,0-1.5-1.514c-.893-.714-1.83-1.361-2.768-1.984-.714-.491-1.428-.958-2.188-1.382-.6-.336-1.249-.6-1.875-.893a9.57,9.57,0,0,0-2.21-.891,4.979,4.979,0,0,1-.581-.177c-.513-.178-1-.378-1.518-.535-.78-.245-1.54-.534-2.343-.735A21.528,21.528,0,0,0,157.659.8c-.893-.131-1.807-.177-2.7-.265-.58-.068-1.16-.134-1.719-.156-.848-.044-1.719-.044-2.567-.066a12.287,12.287,0,0,0-1.294-.045,19.034,19.034,0,0,0-1.942.177c-.624.068-1.25.178-1.852.268-.736.089-1.472.134-2.209.223-.692.089-1.407.223-2.1.335-.246.045-.492.134-.738.177a14.176,14.176,0,0,0-1.629.335c-.959.291-1.92.626-2.857.981a26.258,26.258,0,0,0-2.545,1.181c-.848.467-1.653,1.023-2.456,1.559-.76.512-1.518,1.047-2.256,1.626a26.728,26.728,0,0,0-2.031,1.805c-.356.355-.647.78-.982,1.18-.557.647-1.116,1.27-1.652,1.939-.445.558-.848,1.137-1.273,1.717a28.376,28.376,0,0,0-2.007,3.208c-.246.446-.469.891-.692,1.336-.335.668-.692,1.315-1,2.006a8.433,8.433,0,0,0-.536,1.493q-.472,1.645-.914,3.3a12.394,12.394,0,0,0-.356,3.009,21.035,21.035,0,0,0,.155,2.652c.023.223-.11.491.156.668-.089.245-.022.38.11.423-.154.245.068.4-.02.626-.023.044.068.133.11.2a.785.785,0,0,0,0,.223,4.879,4.879,0,0,1,.113.624c0,.156.133.334.178.49a.258.258,0,0,1-.045.222c-.134.156-.112.289.089.379a.842.842,0,0,1,.046.558c.044.2-.023.266,0,.311a2.925,2.925,0,0,1,.267,1.158.841.841,0,0,0,.09.29,2.691,2.691,0,0,1,0,.423,1.918,1.918,0,0,1,.312-.133,7.185,7.185,0,0,0,.223.8c.112.178.112.265.068.287a6.851,6.851,0,0,0,.288,1.158,7.524,7.524,0,0,0-.11-1.247,2.941,2.941,0,0,0,.759.223,2.035,2.035,0,0,1,.067-.2c-.134-.133-.246-.333-.38-.467a.687.687,0,0,1,0,.313c-.089-.046-.2-.09-.312-.135a4,4,0,0,1,.312-.355c0-.2-.11-.38-.424-.358.134-.044.268-.11.424-.156.246-.133-.022-.378-.022-.69a5.784,5.784,0,0,0-.268-1.158c-.112-.623-.089-1.559-.156-2.183-.134-.112-.246.178-.268.2.068.535.134,1.069.178,1.6-.133-.446-.223-.936-.334-1.471a2.466,2.466,0,0,0-.045.313c-.11.11-.022.245.045.4a.72.72,0,0,0-.335-.044V34.7a3.081,3.081,0,0,1-.4-.558c-.044-.177-.068-.355-.11-.533a.47.47,0,0,0,0-.245q-.039-.267-.068-.536a1.8,1.8,0,0,0-.022-.355,3.812,3.812,0,0,0,.4.042c-.223-.288-.068-.467.023-.645.045-.09.2-.11.246-.2.178-.334.469-.6.469-1.025,0-.2.068-.423.089-.624.045-.379.089-.758.11-1.136a10.265,10.265,0,0,1,.113-1.449c.18-.778.4-1.558.648-2.339.178-.558.38-1.091.6-1.649a25.822,25.822,0,0,1,1.072-2.562c.6-1.2,1.294-2.363,1.964-3.543.424-.736.87-1.426,1.341-2.139.445-.691.89-1.4,1.405-2.051a18.179,18.179,0,0,1,2.367-2.518c.893-.8,1.741-1.626,2.7-2.362a27.14,27.14,0,0,1,3.972-2.542,30.489,30.489,0,0,1,3.5-1.516c.759-.289,1.585-.423,2.367-.668a9.419,9.419,0,0,1,2.723-.446c.6-.023,1.183-.089,1.786-.156.536-.042,1.071-.088,1.652-.155a.945.945,0,0,0-.112.177c-.244.357-.512.714-.758,1.07-.2.29-.424.6-.625.891-.358.469-.738.937-1.072,1.427-.513.736-.982,1.493-1.518,2.228-.535.713-1.116,1.382-1.674,2.072-.736.959-1.428,1.939-2.165,2.9-.67.913-1.382,1.784-2.031,2.7-.58.8-1.094,1.649-1.652,2.472-.825,1.226-1.652,2.429-2.477,3.655q-.972,1.4-1.964,2.785c-.045.068-.112.088-.178.133a3.128,3.128,0,0,0-.246.579c-.178.334-.356.668-.558.981-.112.178-.268.333-.4.512-.022-.267.356-.4.178-.735-.11.179-.223.335-.334.513l-.268.533c.089.068.246.112.089.245-.068.113-.134.245-.2.358a.8.8,0,0,0,.246-.223,1.339,1.339,0,0,1-.246.645,1.783,1.783,0,0,1-.468.446c.022.023.178.09.2.112.2-.068.268-.177.291-.112a.978.978,0,0,0,.156-.222.807.807,0,0,1,.445-.49.88.88,0,0,0,.223-.178c.67-.692,1.362-1.36,1.965-2.1.938-1.137,1.787-2.317,2.68-3.475.379-.49.826-.981,1.227-1.449a8.211,8.211,0,0,1,0,1.471c-.068.824-.112,1.649-.178,2.494-.023.334,0,.668-.023,1,0,.089-.068.156-.068.245,0,.222.068.468.068.691-.068.825-.158,1.626-.225,2.451a1.327,1.327,0,0,0,.11.513c-.11,1.2.136,2.473-.066,3.743a1,1,0,0,0,.2-.556,2.807,2.807,0,0,0,0-.423v-.223a7.713,7.713,0,0,0,.066-1.226,4.13,4.13,0,0,1,.045-1.292c.045-.178-.022-.4.09-.624v.334a31.088,31.088,0,0,1-.155,3.809c-.023.111.068.313-.178.29-.2.4.044.691-.178.913-.046.045.043.245.066.379-.09.268-.09.268.044.29.022.49.068.935.089,1.4a11.38,11.38,0,0,0,.336-2.586,8.728,8.728,0,0,1,.022,1.091c0,.581-.022,1.137-.044,1.717a1.734,1.734,0,0,1-.045.335,6.05,6.05,0,0,1-.2.913,2.5,2.5,0,0,0-.044.825v.848c.089.379-.023.579.044.8-.068.224-.089.291-.068.358l.068.334c.447-.045.246.29.424.467a.374.374,0,0,0-.089.336,4.928,4.928,0,0,1-.044.579c0,.512-.022,1.025-.022,1.515,0,.068.022.133.022.2,0,.046-.022.626-.022.626.045.066,0,.133-.068.2-.021,0-.088-2.83-.088-2.83h-.335a23.316,23.316,0,0,1-.178,3.788,6.083,6.083,0,0,1-.648.066c-.692,0-1.384,0-2.077.022-.826,0-1.629.022-2.456.022-.4,0-.825.046-1.227.046-.536,0-1.094-.068-1.629-.068-.827,0-1.63.068-2.456.089-.6.022-1.2.022-1.807.045-.4.021-.806.042-1.206.088a3.546,3.546,0,0,0-.558.156,1.9,1.9,0,0,0-.356,0c-.225.045-.424.177-.649.223-.335.068-.424.156-.38.49v.222c-.022.044.492-.068.492-.068-.046,0-.067.134-.136.245.18-.068.291-.112.4-.156a3.5,3.5,0,0,0,.892.135,17.655,17.655,0,0,0,2.655.4c.581.045,1.139.068,1.719.089.825.045,1.652.09,2.477.09.692,0,1.362-.068,2.053-.068.958,0,1.92.044,2.88.068.2,0,.424-.024.647-.024h1.629c1.452-.044,2.9-.068,4.354-.11.827-.024,1.675-.068,2.5-.09l2.545-.068c.982-.022,1.965-.022,2.925-.042.736,0,1.451-.025,2.189-.047.825-.022,1.673-.089,2.5-.133.447-.023.894-.068,1.341-.112.536-.044,1.094-.11,1.628-.133.8-.046,1.63-.068,2.435-.113,1-.066,2.009-.155,3.035-.178.938-.044,1.9-.022,2.836-.044.826-.023,1.652-.068,2.5-.09l1.408-.068s.937-.022,1.406-.068c.8-.044,1.607-.133,2.411-.155.512-.023,1.026,0,1.539-.023.825-.022,1.674-.068,2.5-.068.311,0,.646.046,1.049.068-.178.157-.29.245-.424.357a1.428,1.428,0,0,1,.268.112.6.6,0,0,1-.356.11,1.392,1.392,0,0,0-.136.381h.4c-.156,0-.29.2-.446.334a.324.324,0,0,0-.424.245c.156.088.134.155.112.245-.268.088-.469.177-.356.467-.091.044-.2.089-.314.156-.11.178-.312.223-.268.468.09.021.178.068.246.088-.112.045-.223.112-.335.156-.4.245-.222.357-.133.468a.946.946,0,0,1-.2.112c.044.2.11.245.133.245-.089.066-.2.156-.335.267a1.527,1.527,0,0,1-.246.423,4.263,4.263,0,0,1-.246.446,8.166,8.166,0,0,1-1.406,1.516,4.8,4.8,0,0,0-.625.558c-.4.378-.759.8-1.183,1.158-.557.468-1.137.89-1.741,1.314-.735.513-1.472,1.025-2.209,1.515-.4.266-.848.467-1.272.712s-.826.468-1.25.713a6.777,6.777,0,0,1-.8.558c-.736.313-1.518.579-2.277.869-.738.313-1.272.579-1.83.779a12.62,12.62,0,0,1-1.585.423,4.7,4.7,0,0,1-.581.023c-.38.068-.759.157-1.139.2-.982.134-1.965.223-2.946.357-.581.068-1.139.178-1.719.245-.4.022-.826-.022-1.228-.022a5.972,5.972,0,0,1-.893.023c-.468-.068-.937-.178-1.407-.267a.653.653,0,0,0-.356-.022c-.178.089-.336-.044-.515,0-.11.023-.222-.068-.334-.068-.09-.021-.2.024-.314,0a2.08,2.08,0,0,0-.738-.133,2.93,2.93,0,0,1-.823-.177c-.4-.09-.78-.178-1.184-.268a2.027,2.027,0,0,1-.445-.2,3.653,3.653,0,0,1-1.318-.157,2.014,2.014,0,0,0-.937-.221c-.088.022-.155-.022-.246-.022-.068-.09-.133-.268-.2-.268-.446.023-.714-.355-1.094-.468-.2-.068-.356-.29-.557-.357-.492-.2-.893-.623-1.451-.69a3.381,3.381,0,0,1-.558-.178,2.055,2.055,0,0,0,.178.222c-.647-.313-1.25-.668-1.853-1-.088-.022-.155-.11-.222-.156l-.6-.4a.669.669,0,0,1-.56-.112c-.6-.423-1.294-.691-1.875-1.158a3.658,3.658,0,0,1-.712-.58,3.53,3.53,0,0,0-1.117-.868c-.334-.178-.646-.379-.958-.579a.591.591,0,0,1-.314-.49c0-.156-.066-.313-.267-.223-.089-.134-.178-.289-.29-.334a2.352,2.352,0,0,1-.647-.49c-.2-.178-.356-.423-.6-.512a2.645,2.645,0,0,1-.982-.868c-.626-.735-1.184-1.539-1.764-2.317a1.6,1.6,0,0,0-.2-.179,6.113,6.113,0,0,0,.312.668,1.332,1.332,0,0,1-.512-.4c-.023.023,1.539,2.585,1.539,2.585.136.2.246.4.38.6a.69.69,0,0,1-.67-.357.826.826,0,0,0-.87-.533,3.867,3.867,0,0,1-.11-.49,1.808,1.808,0,0,1-.314-.023c.314.49.581.913.871,1.4-.113-.068-.178-.112-.225-.134.4.423.691.958,1.2,1.226.112.511.692.757.826,1.247-.11-.023-.2-.045-.314-.068-.178-.222-.379-.445-.579-.69a1.116,1.116,0,0,0,.2.4,8.611,8.611,0,0,0,.826.958c.112.113.268.158.268.359a.722.722,0,0,0,.312.11c.046.135-.021.336.246.291.178.334.356.334.6.223.291.29.448.313.648.135,0,.11.022.222.022.311.089-.045.068-.112.068-.223.11.089.178.134.222.178a3.784,3.784,0,0,0,.736.847c.424.357.8.736,1.2,1.07a17.074,17.074,0,0,0,2.524,1.672c1.072.6,2.1,1.248,3.193,1.826a17.217,17.217,0,0,0,4.173,1.494c.536.112,1.049.223,1.586.355.466.135.936.336,1.405.447.714.156,1.45.29,2.165.423.155.023.314.046.492.068.2.045.445-.045.489.023.112.177.2.088.335.066a1.905,1.905,0,0,1,.513-.045,17.362,17.362,0,0,0,1.853.112c.136,0,.336-.112.448.11a1.54,1.54,0,0,1,.4-.11c.024.2,0,.2-.042.222a.919.919,0,0,0-.2.111,5.028,5.028,0,0,0,2.231,0,7.523,7.523,0,0,0,3.127-.379c.089.112.156.267.29.045.044-.068.156-.09.246-.113a1.24,1.24,0,0,1,.624-.068c.2.068.269-.11.424-.11a4.185,4.185,0,0,0,.76-.068,4.43,4.43,0,0,0,.424-.134,1.084,1.084,0,0,0-.492-.112q.376-.186.76-.355c-.045.066-.09.155-.178.155h.311c-.067,0-.157.2-.268.334.8-.2,1.538-.379,2.254-.558-.246-.467.267-.31.446-.578a6.87,6.87,0,0,1-.67.178c.759-.378,1.541-.712,2.3-1.046a1.448,1.448,0,0,1-.445.313,2.869,2.869,0,0,1,.29.042c.356.112.268-.222.379-.423a2.082,2.082,0,0,0,.8-.134c.223-.068.446-.134.67-.222.356-.156.691-.355,1.048-.533a1.015,1.015,0,0,1,.268,0c.246-.157.334-.291.4-.269a.505.505,0,0,0,.624-.355c.156-.113.268-.2.379-.269.49-.267.959-.535,1.451-.8a.907.907,0,0,0,.312-.023c.292-.135.56-.289.827-.446a1.937,1.937,0,0,1-.223-.11,2.969,2.969,0,0,0,.424-.112,16.076,16.076,0,0,1,1.829-1.539c.246-.022.246-.089.246-.133a2.124,2.124,0,0,1,.289-.335c.492-.446,1.026-.825,1.473-1.292.647-.648,1.273-1.316,1.853-2.007a18.281,18.281,0,0,0,1.518-1.938c.625-.958,1.16-1.939,1.719-2.943.4-.712.759-1.425,1.162-2.138.042-.068.133-.156.2-.156.6-.068,1.206-.11,1.787-.178a1.687,1.687,0,0,0,.424-.177c-.068-.112-.112-.245-.178-.357-.09-.135-.224-.245-.313-.381a2.135,2.135,0,0,1-.223-.378c-.068-.11-.134-.2-.2-.313a8.158,8.158,0,0,1-.382-.756.47.47,0,0,1-.044-.245c.4-.868.558-1.8.937-2.674a13.61,13.61,0,0,0,.67-2.852c.156-.913.246-1.826.356-2.739.068-.646.157-1.27.178-1.916a18.489,18.489,0,0,0,.068-2.943c-.022-.846-.068-1.715-.11-2.562ZM127.324,56.348c-.156-.177-.29-.379-.446-.556l.068-.068c.244.268.489.535.735.825-.134-.068-.29-.112-.356-.2Zm.356.2c.068-.023.136-.023.2-.045.068.112.112.245.178.379-.312-.023-.468-.156-.379-.334Zm23.217,9.2v-.068c.424-.044.825-.089,1.249-.133v.065a12.076,12.076,0,0,1-1.249.134Zm5.624-.579c-.311.068-.646.112-.959.157-.112.022-.246.134-.29-.068-.045.023-.09.023-.134.046.11.333.379.066.6.2-.492.068-.959.112-1.429.178v-.044c.136-.022.291-.045.424-.068v-.066a6.613,6.613,0,0,0-.67-.045c-.065,0-.155.09-.222.112a1.133,1.133,0,0,1-.29.045c-.379.022-.759.022-1.116.044-.023,0-.068-.022-.09-.022v-.068c1.5-.2,2.969-.4,4.464-.6.023.044.023.089.045.133a1.552,1.552,0,0,0-.335.068Zm.336-.222c.514-.068.984-.111,1.474-.177-1.026.289-1.361.333-1.474.178ZM137.414,19.963c.712-.981,1.45-1.962,2.165-2.964.223-.292.4-.6.624-.893a1.45,1.45,0,0,1,.268-.223l-.022-.042a2.2,2.2,0,0,0,.223-.291,4.279,4.279,0,0,0,.27-.579.323.323,0,0,1,.089-.087c.314.156.314-.178.424-.29q.3-.337.58-.691a4.6,4.6,0,0,0,.38-.535c.022-.068-.045-.177-.068-.268h-.066c.068-.044.134-.11.2-.156.022,0,.022,0,.044-.022.134-.2.268-.4.4-.58a9.614,9.614,0,0,1,.869-1.023c-.044.11-.089.223-.134.311.023,0,.023.023.045.023.268-.357.558-.691.826-1.049-.023-.021-.045-.044-.068-.044-.11.112-.2.223-.312.335-.022-.023-.044-.045-.068-.045.225-.29.448-.579.67-.913a3.26,3.26,0,0,1,.178.334c.091-.222.18-.378.246-.534-.066.068-.155.134-.222.2l-.068-.068.4-.6c.424-.6.848-1.226,1.272-1.828.157-.222.356-.4.492-.624a23.809,23.809,0,0,1,1.607-2.295,3.645,3.645,0,0,1,.4-.423c.11-.135.2-.089.29.022.6.758,1.2,1.537,1.807,2.3.448.558.894,1.091,1.318,1.671.513.714,1,1.426,1.518,2.139.58.825,1.16,1.649,1.719,2.494.848,1.249,1.652,2.5,2.5,3.744.625.913,1.25,1.805,1.853,2.718h-1.14c-1.049-.021-2.121-.11-3.169-.066-1.429.068-2.879.223-4.307.335-1.808.156-3.639.177-5.446.177-.649,0-1.3.091-1.943.135-.782.044-1.541.089-2.323.11-.916.046-1.807.068-2.723.091-.514.022-1.049,0-1.607,0Zm25.6,10.248v.2c-.022,0-.044.023-.089.023-.089-.313-.178-.648-.29-.96a7.473,7.473,0,0,0-.871-1.872c-.448-.623-.848-1.268-1.3-1.915a3.387,3.387,0,0,0-.4-.423,7.768,7.768,0,0,0-1.541-1.426,18.246,18.246,0,0,0-2.79-1.427,6.236,6.236,0,0,1-.78-.4h.535l3.817-.068c.826-.021,1.63-.021,2.456-.066a.442.442,0,0,1,.424.245c.2.334.4.668.624,1a.408.408,0,0,1,.068.177c0,.49,0,1,.022,1.493.021.512.068,1,.088,1.515,0,.513-.045,1.047-.022,1.581.023.759.045,1.539.045,2.317ZM139,22.75c1.049-.045,2.053-.112,3.081-.157.8-.045,1.629-.068,2.431-.111a5.064,5.064,0,0,1,.982,0,7.814,7.814,0,0,0-1.026.58c-.4.267-.78.623-1.183.913A6.7,6.7,0,0,0,142.188,25c-.424.512-.893.957-1.341,1.448a13.59,13.59,0,0,0-.937,1.07c-.379.49-.714,1.023-1.071,1.581.112-2.117.246-4.211.156-6.35Zm14.577,21.435a18.345,18.345,0,0,1-2.188.468,13.689,13.689,0,0,1-1.92.068c-.582,0-1.14-.022-1.72-.068a5.809,5.809,0,0,1-1.92-.423c-.537-.245-1.094-.468-1.629-.736a4.31,4.31,0,0,1-1.476-1.069,8.423,8.423,0,0,0-1.048-.959,1.052,1.052,0,0,0,.469.646c-.112.134-.268.068-.492-.29a1.227,1.227,0,0,1-.178.09c.068-.157.134-.313.2-.446-.089-.177-.2-.379-.29-.558q-.269-.438-.513-.89c-.045-.068-.045-.134-.089-.2a4.947,4.947,0,0,1-.314-.4,9.14,9.14,0,0,0-.557-.824c0,.068.023.134.023.223a.077.077,0,0,0-.045.022l-.47-1.136c-.022,0-.022,0-.044.022l.4,1.471c-.022,0-.044.021-.068.021a1.363,1.363,0,0,1-.178-.287c-.044-.179-.178-.179-.288-.112a.3.3,0,0,0-.09.267c.157.379.335.758.514,1.136a2.666,2.666,0,0,0,.156.379c.023.045.09.089.09.156a3.929,3.929,0,0,0,.268.512c.2.267.424.535.625.8s.378.558.556.825c.022.045.089.045.11.068.113.334.492.578.76.445.068.512.625.691.848,1.181-.268-.112-.468-.2-.647-.29-.023.022-.023.044-.046.089a8.6,8.6,0,0,1,.78.423,6.884,6.884,0,0,1,.649.423,2.035,2.035,0,0,0,.959.468.241.241,0,0,0-.042-.09q.886.412,1.762.846c-2.322.046-4.8.09-7.367.135,0-.423-.022-.825-.022-1.248a3.827,3.827,0,0,0,.021-.512c-.068-1.023-.068-2.05-.2-3.053a21.771,21.771,0,0,1-.11-3.188c.021-.577-.023-1.179-.046-1.759,0-.779,0-1.539.024-2.317a.833.833,0,0,1,.09-.313h.068c.021.046,0,.113.042.135.068.068.18.178.225.156.133-.09.334-.178.379-.313a2.181,2.181,0,0,0,.156-.824.809.809,0,0,1,.178-.468,1.991,1.991,0,0,0,.113-.222c-.089-.068-.178-.112-.29-.2.09-.245.068-.535.4-.668.044-.023.044-.135.068-.2.021-.18.042-.38.066-.558a.715.715,0,0,0,.11.133.359.359,0,0,1,.046-.068c0-.088-.022-.266,0-.266.268-.045.156-.334.29-.467.021-.024-.023-.09-.023-.135s0-.11.022-.11c.311-.068.267-.4.468-.558.068-.045.089-.11.178-.222.178.311-.134.468-.156.69.379-.223.49-.757.267-.913a1.315,1.315,0,0,0,.246-.245c.246-.267.512-.512.736-.78.157-.2.246-.445.4-.645a1.283,1.283,0,0,1,.4-.268,2.715,2.715,0,0,0,1.026-.846,1.293,1.293,0,0,1,.178-.134c.068-.045.2-.045.224-.112.023-.044-.044-.156-.089-.223.088-.045.178-.134.356-.223-.068.134-.089.223-.134.313l.11.11c.2-.156.514-.333.715-.467,0-.021-.112-.11-.112-.11-.133.068-.334.178-.534.267.042-.068.042-.112.068-.134a8.363,8.363,0,0,1,.959-.558c.78-.355,1.562-.712,2.344-1.046A1.087,1.087,0,0,1,148.86,24a.5.5,0,0,0,.178-.022c.356-.112.714-.223,1.071-.313a1.874,1.874,0,0,1,.492-.066c.668.021,1.338.021,2.007.066a3.4,3.4,0,0,1,.826.178,8.367,8.367,0,0,1,1,.423,11.64,11.64,0,0,1,1.094.67c.647.423,1.25.891,1.9,1.27a5.024,5.024,0,0,1,1.518,1.471,6.8,6.8,0,0,1,1.272,2.16l.334,1.471a1.779,1.779,0,0,1,.157.846c-.113.558-.2,1.137-.291,1.694a2.279,2.279,0,0,0-.066.668,4.18,4.18,0,0,1-.492,1.918c-.09.2-.224.4-.335.624a.676.676,0,0,0,.178.09l.2-.4c.023,0,.023,0,.045.023-.112.311-.2.646-.314.958-.266.691-.534,1.4-.869,2.072a11.127,11.127,0,0,1-.714,1.049c-.222.311-.4.645-.624.935a3.127,3.127,0,0,1-.67.668,17.068,17.068,0,0,1-1.875,1.248,4.7,4.7,0,0,1-1.316.49ZM141.677,43l-.022.023a.512.512,0,0,1-.158-.089l-.536-.8a.252.252,0,0,1-.044-.221q.36.558.759,1.091Zm13.886,3.052a8.978,8.978,0,0,0,2.587-1.715,2.569,2.569,0,0,1,.358-.313,7.808,7.808,0,0,0,2.255-2.272,31.018,31.018,0,0,0,1.764-3.275,2.307,2.307,0,0,1,.133-.245,50.438,50.438,0,0,0,.58,7.553l-7.678.267Zm22.634-.668c-.022.045-.068.09-.089.135a1.31,1.31,0,0,1-.045-.2c-.134.358-.424.179-.625.179-1.2.023-2.433.023-3.639.023-1.16,0-2.343,0-3.5.02-.38,0-.782.089-1.162.111-.914.044-1.83.068-2.745.089-.068,0-.134-.11-.246-.2a1.552,1.552,0,0,1-.134.2c-.024-.044-.068-.088-.113-.155a1.27,1.27,0,0,1-.068.178h-.065a6.369,6.369,0,0,1-.134-.913c0-.668.068-1.336.089-2.006.023-.311,0-.6,0-.891.09.068.157.112.246.177a1.908,1.908,0,0,1,.134-.22.436.436,0,0,1-.09-.068c.042-.023.088-.068.088-.09a.985.985,0,0,0,.068-.177,2.4,2.4,0,0,0-.068-.423.082.082,0,0,0,.068-.024l.133.668h.068c-.09-.155.2-.289-.045-.467-.022-.023.022-.157.022-.223a4.537,4.537,0,0,1-.178-.445.549.549,0,0,1,.156-.068,2.027,2.027,0,0,0-.223-.11c.223-.2.223-.313.022-.535.046-.021.09-.021.09-.042a2.743,2.743,0,0,0-.044-.6c-.045-.225.068-.49-.268-.626a.649.649,0,0,0,.089.177.622.622,0,0,0-.134.068c-.29-.268-.11-.626-.178-1.026a3.375,3.375,0,0,1,.379.135c-.045-.157-.156-.336-.223-.536h-.091V36.03c0,.023.156.023.246.046,0-.023.021-.045.021-.068-.068-.089-.157-.178-.246-.289l.045-.045a.792.792,0,0,1-.089-.6v-1.56c.224.223-.11.512.224.646v-.223h-.023c-.022-.334-.022-.668-.044-1h-.044c-.023.046-.023.068-.046.113h-.044l.134-5.325a6.979,6.979,0,0,1,.624.846,23.256,23.256,0,0,0,1.808,2.586c.536.736,1.027,1.537,1.519,2.295.6.913,1.182,1.827,1.786,2.74.446.692.916,1.383,1.382,2.052.424.6.872,1.18,1.318,1.76.378.513.78,1.025,1.16,1.537.447.624.893,1.247,1.34,1.849.222.311.468.623.712.935a2.716,2.716,0,0,0,.47.423.169.169,0,0,1-.088-.022,2.148,2.148,0,0,0,.156.2c.246.134.268.268.134.469Zm1.138-5.569V39.66c0,.044.022.11,0,.156Zm.759-9.826a1.092,1.092,0,0,1-.178-.157c-.023.068,0,.134-.045.223-.023-.066-.178-.044-.178-.11-.023.311.133.623.11.935.068-.045.335-.068.4-.134a.178.178,0,0,0,.09.044c-.447.335-.335.668-.134,1.049.044.088.178.266.044.445-.044.045.023.177.045.29h.065v.042l-.2.068c-.044-.068-.311-.2-.311-.313v1.138c.223.068.223.379.312.535a.659.659,0,0,0,.091-.177l.023.02a2.668,2.668,0,0,1-.09.4,5.114,5.114,0,0,0-.11.578c0,.022.042.068.042.089a6.71,6.71,0,0,0-.2,1.759c-.068.423,0,.871-.045,1.316a11.138,11.138,0,0,1-.224,1.158c-.023.068-.068.089-.178.134a1.788,1.788,0,0,0-.023-.691c-.024,0-.314-.156-.337-.156a7.305,7.305,0,0,0,.246,1.091c-.068-.022-.335-.177-.356-.177-.046.267-.046.624-.068.913-.023.223-.223.423-.246.668,0,.135.156.223.134.447h.178c0-.445.2-.846.2-1.314h.066c.023.045.09.09.068.112a2.889,2.889,0,0,0-.112.758c0,.134.11.267.068.423a2.16,2.16,0,0,0-.091.468,1.235,1.235,0,0,1-.045-.223c-.022,0-.223-.023-.246-.023-.022.134.157.267.134.379-.022.022-.044.022-.089.045l-.736-1.07q-.88-1.275-1.742-2.562a5.334,5.334,0,0,1-.4-.668,31.276,31.276,0,0,0-2.3-3.41c-.646-.824-1.162-1.717-1.764-2.583-.556-.825-1.115-1.627-1.673-2.452-.2-.266-.446-.512-.625-.8-.579-.913-1.094-1.849-1.673-2.763-.492-.759-1.026-1.494-1.541-2.229-.178-.245-.356-.513-.536-.78a.308.308,0,0,1-.044-.154c-.045-.49-.09-.981-.112-1.449,0-.446.045-.891.045-1.36v-.4c0-.112.021-.2.021-.313.021-.021.044-.066.066-.088-.647,0-1.317-.024-1.965,0a1.09,1.09,0,0,1-.937-.469,36.9,36.9,0,0,1-2.21-3.075c-.692-.981-1.406-1.94-2.12-2.9-.581-.78-1.162-1.537-1.741-2.317-.648-.891-1.273-1.782-1.943-2.674-.8-1.069-1.63-2.139-2.456-3.208-.382-.49-.806-.958-1.23-1.471.291.046.56.09.827.112l1.072.068c.8.065,1.607.11,2.409.22.67.09,1.341.224,2.032.335A28.752,28.752,0,0,1,161.962,4.7c.826.267,1.629.624,2.435.958a49.615,49.615,0,0,1,5.223,2.562A5.243,5.243,0,0,1,170.869,9.4c.581.6,1.162,1.2,1.719,1.826.646.735,1.249,1.493,1.875,2.251.557.668,1.137,1.336,1.7,2.005a6.931,6.931,0,0,1,.468.668c.356.535.759,1.049,1.071,1.627a9.453,9.453,0,0,1,.512,1.382c.222.691.446,1.359.67,2.05q.234.782.4,1.581c.09.358.068.736.178,1.091.136.47,0,.981.136,1.45.021.045.042.112.066.156.089.088.156.178.022.311a.247.247,0,0,0,0,.178.862.862,0,0,0,.113-.156c0,.045.021.068.021.089a1.036,1.036,0,0,0,0,.266.485.485,0,0,0,.066.156,1.767,1.767,0,0,1,.178-.135,8.821,8.821,0,0,1,.224,2.3,5.188,5.188,0,0,1-.178,2.184c.066-.245-.09-.469-.023-.692Z" transform="translate(-28.725 0)" fill="#8c98a4"/>
        <path id="Path_3" data-name="Path 3" d="M176.159,130.827a.08.08,0,0,1,.044.023l-.023-.025c0-.021,0-.021-.022,0Zm3.526,22.015a2.113,2.113,0,0,1-.8.4c-.024-.022-.024-.045-.046-.068.246-.156.513-.311.759-.468.023.042.068.088.09.133ZM137.83,122.649c.246-.31.492-.622.758-.934.021.022.2.068.222.089-.246.313-.581.736-.826,1.07-.046-.045-.113-.2-.157-.223Zm-6.341,10.921c-.178-.379-.356-.78-.534-1.159a.777.777,0,0,1,.2-.09,7.708,7.708,0,0,1,.536,1.158,1.735,1.735,0,0,1-.2.089Zm5.694-10.7c-.134.2-.268.424-.4.626-.022-.024-.268.088-.29.066.134-.2.468-.558.6-.758a.333.333,0,0,0,.09.068ZM177.3,153.758c.021,0,.021-.022.044-.022a3.751,3.751,0,0,0,.513.044c-.292.2-.471.178-.56-.022Zm-40.072-29.949a.947.947,0,0,1,.113-.2.436.436,0,0,0,.11-.023c.091-.155.091-.267.18-.4-.022-.022-.045-.022-.068-.045-.133.091-.267.2-.4.292a.122.122,0,0,1,.045.112c-.178-.023-.246.067-.335.311-.022.068-.134.09-.246.178-.022.046-.044.157-.089.268l.023.024a.333.333,0,0,1-.112.068c-.134.133-.29.245-.424.378a.663.663,0,0,0-.044.2c.157-.156.424-.446.625-.624l.023.023c.089-.134.156-.267.246-.4.021.022.021.044.044.067-.068.178-.134.377-.2.555-.047.022-.114.068-.114.045-.089.067-.156.156-.246.223l-.4.267c-.223.2-.446.378-.692.579-.156.245-.312.468-.492.758.269-.068.336.045.314.268.312.044.335-.2.424-.379.022-.046.045-.136.089-.157.2-.178.424-.333.647-.512a.3.3,0,0,0,.045-.2c0-.022-.113-.022-.18-.045.2-.223.492-.6.692-.846.112-.068.223-.157.223-.224-.022-.245.134-.311.314-.4a.245.245,0,0,1-.113-.155Z" transform="translate(-39.053 -92.171)" fill="#8c98a4"/>
        <path id="Path_4" data-name="Path 4" d="M134.289,70.543c-.089.156-.178.289-.267.446l-.134-.068a1.325,1.325,0,0,1-.714,1.046.375.375,0,0,0,.246.067c.066-.023.11-.135.155-.2l.6-.869.2-.335-.089-.088Zm-7.432,9.781c.112,0,.224.022.356.022,0-.089.113-.068.113-.156h.068c0,.112.022.2.022.313h-.468c-.023-.023-.112-.157-.09-.179Zm-.178-1.025c-.068-.067-.178-.134-.178-.2-.023-.088.044-.2.11-.311.046.156.068.289.112.446-.023.021-.045.044-.045.066Zm.558-1.427c.089.225.178.47.268.693a.7.7,0,0,0-.178.089c-.089-.223-.2-.468-.29-.691a.553.553,0,0,1,.2-.09Zm49.691,21.3a3.335,3.335,0,0,1,.424-.11,4.981,4.981,0,0,0-.492.4c-.023-.022-.045-.045-.068-.045C176.837,99.333,176.882,99.266,176.928,99.176ZM149.49,52.094c.133-.09.246-.156.379-.245l.044.044c-.136.178-.246.355-.4.579-.022-.155-.022-.245-.045-.355-.022,0,0,0,.023-.022Zm6.54,11.274c.2-.089.4-.177.647-.29a1.709,1.709,0,0,0-.022.313.783.783,0,0,0-.224-.046c-.134.023-.38.2-.492.223-.021,0,.09-.178.09-.2Zm16.744,18.9c.044.223.468.334.044.556.068.047.133.068.2.113a.17.17,0,0,1-.044.09c-.045.021-.134.066-.178.042-.023,0-.068-.088-.068-.133,0-.2.023-.4.045-.668Z" transform="translate(-35.669 -39.15)" fill="#8c98a4"/>
      </g>
      <path id="Path_5" data-name="Path 5" d="M10.371,316.105q6.339,0,9.855,2.638t3.517,7.82q0,5.413-3.447,8.166t-9.231,2.753H7.6V348.17H.007V316.105Zm.046,15.917a5.921,5.921,0,0,0,4.095-1.272,5.4,5.4,0,0,0,1.411-4.187q0-5.044-5.645-5.044H7.6v10.5Zm27.854-9.208q5.645,0,8.838,3.447t3.193,9.647a15.285,15.285,0,0,1-1.458,6.871,10.747,10.747,0,0,1-4.164,4.558,12.251,12.251,0,0,1-6.408,1.619,11.467,11.467,0,0,1-8.814-3.447q-3.216-3.448-3.216-9.647a15.285,15.285,0,0,1,1.458-6.871,10.744,10.744,0,0,1,4.164-4.558,12.252,12.252,0,0,1,6.408-1.619Zm0,5.367a3.626,3.626,0,0,0-3.331,1.874,11.74,11.74,0,0,0-1.111,5.807,12.063,12.063,0,0,0,1.087,5.876,3.932,3.932,0,0,0,6.686-.023,11.745,11.745,0,0,0,1.11-5.806,12.062,12.062,0,0,0-1.087-5.876,3.624,3.624,0,0,0-3.354-1.851ZM63.3,322.815a15.28,15.28,0,0,1,4.951.787,12.987,12.987,0,0,1,4.072,2.221l-2.684,4.118a11.266,11.266,0,0,0-6.062-1.9,4.107,4.107,0,0,0-2.2.486,1.532,1.532,0,0,0-.763,1.365,1.775,1.775,0,0,0,.347,1.134,3.742,3.742,0,0,0,1.411.9,29.924,29.924,0,0,0,3.285,1.11,13.806,13.806,0,0,1,5.714,2.892,6.473,6.473,0,0,1,1.874,4.927,6.8,6.8,0,0,1-1.434,4.326,9.016,9.016,0,0,1-3.933,2.8,15.209,15.209,0,0,1-5.552.972,16.673,16.673,0,0,1-5.761-.972A13.245,13.245,0,0,1,52.06,345.3l3.563-3.979a10.484,10.484,0,0,0,6.524,2.406,4.861,4.861,0,0,0,2.614-.6,1.914,1.914,0,0,0,.949-1.712,2.317,2.317,0,0,0-.37-1.388,3.329,3.329,0,0,0-1.434-.948,33,33,0,0,0-3.378-1.087,12.038,12.038,0,0,1-5.46-2.961,6.582,6.582,0,0,1-1.8-4.719,6.337,6.337,0,0,1,1.226-3.817,8.3,8.3,0,0,1,3.517-2.684,13.2,13.2,0,0,1,5.3-.995Zm29.1,24.2a10.558,10.558,0,0,1-3.123,1.434,12.853,12.853,0,0,1-3.54.509q-8.051-.047-8.051-8.884V328.691H74.223V323.6h3.47V318.28L85,317.447V323.6h5.645l-.786,5.09H85v11.29a4.169,4.169,0,0,0,.555,2.452,2.055,2.055,0,0,0,1.758.74,5.373,5.373,0,0,0,2.638-.787Zm15.686-31.694a14.163,14.163,0,0,1,9.763,3.517l-3.609,4.3a11.839,11.839,0,0,0-2.822-1.666,7.9,7.9,0,0,0-2.962-.555,5.886,5.886,0,0,0-5.113,2.73q-1.874,2.73-1.874,8.421,0,5.6,1.874,8.305a5.983,5.983,0,0,0,5.205,2.707,7.448,7.448,0,0,0,3.193-.671,17.951,17.951,0,0,0,3.1-1.92l3.378,4.35a14.568,14.568,0,0,1-4.372,2.961,13.646,13.646,0,0,1-5.668,1.157,14.9,14.9,0,0,1-7.727-1.943,12.989,12.989,0,0,1-5.113-5.761,21.109,21.109,0,0,1-1.828-9.184,20.174,20.174,0,0,1,1.874-9.023,13.394,13.394,0,0,1,5.182-5.761,14.431,14.431,0,0,1,7.519-1.966Zm23.829,0a17.519,17.519,0,0,1,6.269,1.018,14.381,14.381,0,0,1,4.835,3.1l-3.517,4.118a10.923,10.923,0,0,0-7.033-2.684,5.4,5.4,0,0,0-3.146.809,2.677,2.677,0,0,0-1.157,2.337,2.793,2.793,0,0,0,.509,1.735,4.759,4.759,0,0,0,1.8,1.273,36.205,36.205,0,0,0,3.886,1.434,18.053,18.053,0,0,1,7.218,3.864,8.741,8.741,0,0,1,2.313,6.5,9.328,9.328,0,0,1-1.527,5.3,9.976,9.976,0,0,1-4.4,3.563,16.675,16.675,0,0,1-6.8,1.273,18.148,18.148,0,0,1-6.963-1.249,16.562,16.562,0,0,1-5.205-3.331l3.84-4.21a13.872,13.872,0,0,0,3.818,2.359,11.419,11.419,0,0,0,4.28.787,6,6,0,0,0,3.725-1.041,3.433,3.433,0,0,0,1.365-2.892,3.711,3.711,0,0,0-.509-2.013,4.4,4.4,0,0,0-1.758-1.458,23.482,23.482,0,0,0-3.609-1.388q-5.321-1.62-7.565-3.979a8.938,8.938,0,0,1-.763-10.85,9.457,9.457,0,0,1,4.118-3.239,14.975,14.975,0,0,1,5.969-1.134Zm26.466,0a17.519,17.519,0,0,1,6.269,1.018,14.388,14.388,0,0,1,4.835,3.1l-3.517,4.118a10.924,10.924,0,0,0-7.033-2.684,5.4,5.4,0,0,0-3.146.809,2.677,2.677,0,0,0-1.157,2.337,2.793,2.793,0,0,0,.509,1.735,4.756,4.756,0,0,0,1.8,1.273,36.21,36.21,0,0,0,3.886,1.434,18.055,18.055,0,0,1,7.218,3.864,8.741,8.741,0,0,1,2.313,6.5,9.33,9.33,0,0,1-1.527,5.3,9.975,9.975,0,0,1-4.4,3.563,16.675,16.675,0,0,1-6.8,1.273,18.147,18.147,0,0,1-6.963-1.249,16.563,16.563,0,0,1-5.206-3.331l3.84-4.21a13.875,13.875,0,0,0,3.817,2.359,11.419,11.419,0,0,0,4.28.787,6,6,0,0,0,3.725-1.041,3.433,3.433,0,0,0,1.365-2.892,3.714,3.714,0,0,0-.509-2.013,4.4,4.4,0,0,0-1.758-1.458,23.523,23.523,0,0,0-3.609-1.388q-5.321-1.62-7.565-3.979a8.938,8.938,0,0,1-.763-10.85,9.454,9.454,0,0,1,4.118-3.239A14.978,14.978,0,0,1,158.388,315.319Z" transform="translate(117.101 -407.667)" fill="#8c98a4"/>
    </g>
  </g>
</svg>
