<svg id="Group_7" data-name="Group 7" xmlns="http://www.w3.org/2000/svg" width="21.511" height="21.435" fill="currentColor" viewBox="0 0 21.511 21.435">
  <path id="Path_1" data-name="Path 1" d="M166.4,114.409c.029.022.08.036.029.08a1.138,1.138,0,0,0-.109.152c-.029.051-.051.065-.094.029q.082-.134.174-.261Zm14.6,7.6c0,.022.007.036.007.058.015-.029.015-.044.022-.058Zm0,.065v-.007Zm-1.481,2.827-1.264-6.988c-.021-.007-.05-.021-.1-.036a.484.484,0,0,1,.029.072.305.305,0,0,0,.065-.014.027.027,0,0,1,.007-.022l1.264,6.988Zm-1.307-8.56a.2.2,0,0,0-.007.065.189.189,0,0,1,.008-.065Zm.007.145c-.007,0-.007,0-.014-.008v.007c.008.007.008.007.015,0Zm-.014.058v-.051c-.021.007-.043.007-.072.015.036.014.073.021.073.036Z" transform="translate(-162.395 -105.456)"/>
  <path id="Path_2" data-name="Path 2" d="M138.812,9.585c-.014-.283-.021-.566-.051-.848-.051-.384-.1-.776-.189-1.153a6.515,6.515,0,0,0-.283-.906,10.865,10.865,0,0,0-.45-1.036,15.969,15.969,0,0,0-.995-1.515c-.226-.319-.516-.58-.734-.906a2.229,2.229,0,0,0-.487-.492c-.291-.232-.6-.443-.9-.646-.232-.16-.465-.312-.712-.45-.2-.109-.406-.2-.61-.29a3.113,3.113,0,0,0-.719-.29,1.62,1.62,0,0,1-.189-.058c-.167-.058-.327-.123-.494-.174-.254-.08-.5-.174-.762-.239a7,7,0,0,0-.777-.145c-.29-.043-.588-.058-.879-.086-.189-.022-.378-.043-.559-.051-.276-.014-.559-.014-.835-.021a4,4,0,0,0-.421-.015,6.192,6.192,0,0,0-.632.058c-.2.022-.407.058-.6.087-.239.029-.479.043-.719.073s-.458.073-.682.109c-.08.015-.16.043-.24.058a4.611,4.611,0,0,0-.53.109c-.312.095-.625.2-.929.319a8.543,8.543,0,0,0-.828.384c-.276.152-.538.333-.8.507s-.494.34-.734.529a8.7,8.7,0,0,0-.661.587c-.116.116-.211.254-.32.384-.181.21-.363.413-.537.631-.145.182-.276.37-.414.558a9.233,9.233,0,0,0-.653,1.044c-.08.145-.153.29-.225.435-.109.217-.225.428-.327.653a2.744,2.744,0,0,0-.174.486q-.153.535-.3,1.073a4.033,4.033,0,0,0-.116.979,6.844,6.844,0,0,0,.051.863c.007.073-.036.16.051.217-.029.08-.007.124.036.138-.05.08.022.131-.007.2-.007.014.022.043.036.065a.255.255,0,0,0,0,.073,1.586,1.586,0,0,1,.037.2c0,.051.043.109.058.16a.084.084,0,0,1-.015.072c-.044.051-.036.094.029.123a.274.274,0,0,1,.015.182c.014.065-.007.087,0,.1a.952.952,0,0,1,.087.377.274.274,0,0,0,.029.094.875.875,0,0,1,0,.138.624.624,0,0,1,.1-.043,2.338,2.338,0,0,0,.073.261c.036.058.036.086.022.093a2.229,2.229,0,0,0,.094.377,2.447,2.447,0,0,0-.036-.406.957.957,0,0,0,.247.072.664.664,0,0,1,.022-.065c-.044-.043-.08-.108-.124-.152a.224.224,0,0,1,0,.1c-.029-.015-.065-.029-.1-.044a1.3,1.3,0,0,1,.1-.116c0-.065-.036-.124-.138-.116.044-.014.087-.036.138-.051.08-.043-.007-.123-.007-.224a1.881,1.881,0,0,0-.087-.377c-.036-.2-.029-.507-.051-.71-.044-.036-.08.058-.087.065.022.174.044.348.058.522-.043-.145-.073-.3-.109-.479a.8.8,0,0,0-.015.1c-.036.036-.007.08.015.13a.234.234,0,0,0-.109-.014v.2a1,1,0,0,1-.131-.182c-.014-.058-.022-.116-.036-.173a.153.153,0,0,0,0-.08q-.013-.087-.022-.174a.584.584,0,0,0-.007-.116,1.24,1.24,0,0,0,.131.014c-.073-.094-.022-.152.007-.21.015-.029.065-.036.08-.065.058-.109.153-.2.153-.333,0-.065.022-.138.029-.2.015-.123.029-.246.036-.37a3.342,3.342,0,0,1,.037-.471c.059-.253.131-.507.211-.761.058-.182.124-.355.2-.536a8.4,8.4,0,0,1,.349-.833c.2-.392.421-.769.639-1.153.138-.239.283-.464.436-.7s.29-.457.457-.667a5.914,5.914,0,0,1,.77-.819c.291-.261.567-.529.879-.768a8.829,8.829,0,0,1,1.292-.827,9.918,9.918,0,0,1,1.14-.493c.247-.094.515-.137.77-.217a3.064,3.064,0,0,1,.886-.145c.2-.007.385-.029.581-.051.174-.014.348-.029.538-.05a.307.307,0,0,0-.036.058c-.08.116-.167.232-.247.348-.065.094-.138.2-.2.29-.116.153-.24.3-.349.464-.167.239-.32.486-.494.725s-.363.45-.545.674c-.24.312-.465.631-.7.942-.218.3-.45.58-.661.878-.189.26-.356.536-.538.8-.268.4-.537.79-.806,1.189q-.316.455-.639.906c-.015.022-.036.029-.058.043a1.017,1.017,0,0,0-.08.188c-.058.109-.116.217-.182.319-.036.058-.087.108-.131.166-.007-.087.116-.13.058-.239-.036.058-.073.109-.109.167l-.087.173c.029.022.08.037.029.08-.022.037-.044.08-.065.116a.261.261,0,0,0,.08-.073.436.436,0,0,1-.08.21.58.58,0,0,1-.152.145c.007.007.058.029.065.036.065-.022.087-.058.095-.036a.318.318,0,0,0,.051-.072.263.263,0,0,1,.145-.16.286.286,0,0,0,.073-.058c.218-.225.443-.442.639-.682.305-.37.581-.754.872-1.131.123-.16.269-.319.4-.471a2.672,2.672,0,0,1,0,.479c-.022.268-.036.536-.058.811-.007.109,0,.217-.007.326,0,.029-.022.051-.022.08,0,.072.022.152.022.225-.022.268-.051.529-.073.8a.432.432,0,0,0,.036.167c-.036.391.044.8-.021,1.218a.324.324,0,0,0,.065-.181.913.913,0,0,0,0-.137V10.8a2.507,2.507,0,0,0,.022-.4,1.344,1.344,0,0,1,.015-.42c.015-.058-.007-.13.029-.2v.109a10.113,10.113,0,0,1-.051,1.239c-.007.036.022.1-.058.094-.066.13.014.225-.058.3-.015.015.014.08.021.123-.029.087-.029.087.014.094.007.16.022.3.029.457a3.7,3.7,0,0,0,.109-.841,2.84,2.84,0,0,1,.007.355c0,.189-.007.37-.014.558a.563.563,0,0,1-.015.109,1.969,1.969,0,0,1-.065.3.814.814,0,0,0-.014.268v.276c.029.123-.007.188.014.261-.022.073-.029.095-.022.116l.022.109c.145-.015.08.094.138.152a.122.122,0,0,0-.029.109,1.6,1.6,0,0,1-.014.188c0,.167-.007.333-.007.493,0,.022.007.043.007.065s-.007.2-.007.2c.015.021,0,.043-.022.065-.007,0-.029-.921-.029-.921h-.109a7.585,7.585,0,0,1-.058,1.232,1.979,1.979,0,0,1-.211.021c-.225,0-.45,0-.676.007-.269,0-.53.007-.8.007-.13,0-.268.015-.4.015-.174,0-.356-.022-.53-.022-.269,0-.53.022-.8.029-.2.007-.392.007-.588.015-.131.007-.262.014-.392.029a1.153,1.153,0,0,0-.182.051.617.617,0,0,0-.116,0c-.073.015-.138.058-.211.073-.109.022-.138.051-.124.16v.072c-.007.014.16-.022.16-.022s-.022.043-.044.08l.131-.051a1.138,1.138,0,0,0,.29.044,5.743,5.743,0,0,0,.864.13c.189.015.371.022.559.029.268.015.537.029.806.029.225,0,.443-.022.668-.022.312,0,.625.014.937.022.065,0,.138-.008.211-.008h.53c.472-.014.944-.022,1.416-.036.269-.008.545-.022.814-.029l.828-.022c.32-.007.639-.007.951-.014.24,0,.472-.008.712-.015.268-.007.544-.029.813-.043.145-.007.291-.022.436-.036.174-.014.356-.036.53-.043.262-.015.53-.022.792-.037.327-.021.653-.05.987-.058.305-.014.617-.007.923-.014.269-.007.538-.022.813-.029l.458-.022s.3-.007.457-.022c.261-.014.523-.043.784-.05.167-.007.334,0,.5-.007.268-.007.544-.022.813-.022.1,0,.21.015.341.022-.058.051-.094.08-.138.116a.464.464,0,0,1,.087.036.2.2,0,0,1-.116.036.453.453,0,0,0-.044.124h.131c-.051,0-.094.065-.145.109a.105.105,0,0,0-.138.08c.051.029.044.05.036.08-.087.029-.153.058-.116.152-.03.014-.066.029-.1.051-.036.058-.1.072-.087.152.029.007.058.022.08.029-.036.015-.073.036-.109.051-.13.08-.072.116-.043.152A.308.308,0,0,1,136,16.7c.014.065.036.08.043.08-.029.021-.065.051-.109.087a.5.5,0,0,1-.08.137,1.394,1.394,0,0,1-.08.145,2.657,2.657,0,0,1-.457.493,1.562,1.562,0,0,0-.2.182c-.131.123-.247.261-.385.377-.181.152-.37.29-.566.427-.239.167-.479.333-.719.493-.131.087-.276.152-.414.232s-.269.152-.407.232a2.206,2.206,0,0,1-.262.181c-.24.1-.494.188-.741.283s-.414.188-.6.254a4.106,4.106,0,0,1-.515.138,1.527,1.527,0,0,1-.189.007c-.124.022-.247.051-.371.065-.32.043-.639.073-.958.116-.189.022-.371.058-.559.08-.131.007-.269-.007-.4-.007a1.943,1.943,0,0,1-.291.007c-.152-.022-.3-.058-.458-.087a.212.212,0,0,0-.116-.007c-.058.029-.109-.014-.168,0-.036.007-.072-.022-.109-.022s-.066.008-.1,0a.677.677,0,0,0-.24-.043.953.953,0,0,1-.268-.058L125.9,20.4a.659.659,0,0,1-.145-.065,1.188,1.188,0,0,1-.429-.051.655.655,0,0,0-.3-.072c-.029.007-.051-.007-.08-.007-.022-.029-.043-.087-.065-.087-.145.007-.232-.116-.356-.152-.065-.022-.116-.094-.181-.116-.16-.065-.29-.2-.472-.224a1.1,1.1,0,0,1-.182-.058.67.67,0,0,0,.058.072c-.211-.1-.407-.217-.6-.326-.029-.007-.05-.036-.072-.051l-.2-.13a.218.218,0,0,1-.182-.036c-.2-.137-.421-.225-.61-.377a1.19,1.19,0,0,1-.232-.189,1.148,1.148,0,0,0-.363-.282c-.109-.058-.21-.123-.312-.188a.192.192,0,0,1-.1-.16c0-.051-.022-.1-.087-.073-.029-.043-.058-.094-.094-.109a.765.765,0,0,1-.211-.16c-.065-.058-.116-.138-.2-.166a.861.861,0,0,1-.32-.283c-.2-.239-.385-.5-.574-.754a.52.52,0,0,0-.065-.058,1.99,1.99,0,0,0,.1.217.433.433,0,0,1-.167-.13c-.007.007.5.841.5.841.044.065.08.131.124.2a.225.225,0,0,1-.218-.116.269.269,0,0,0-.283-.173,1.256,1.256,0,0,1-.036-.16.588.588,0,0,1-.1-.007c.1.16.189.3.283.457-.037-.022-.058-.036-.073-.043.131.138.225.312.392.4.036.166.225.246.269.406l-.1-.022c-.058-.072-.123-.145-.188-.224a.363.363,0,0,0,.065.13,2.8,2.8,0,0,0,.269.312c.036.037.087.051.087.117a.235.235,0,0,0,.1.036c.015.044-.007.109.08.095.058.109.116.109.2.073.095.094.146.1.211.044,0,.036.007.072.007.1.029-.015.022-.036.022-.073.036.029.058.043.072.058a1.231,1.231,0,0,0,.24.276c.138.116.262.239.392.348a5.554,5.554,0,0,0,.821.544c.349.2.683.406,1.039.594a5.6,5.6,0,0,0,1.358.486c.174.036.341.072.516.116.152.044.3.109.457.145.232.051.472.094.7.138l.16.022c.065.015.145-.015.159.007.036.058.065.029.109.021a.62.62,0,0,1,.167-.015,5.648,5.648,0,0,0,.6.036c.044,0,.109-.037.146.036a.5.5,0,0,1,.131-.036c.008.065,0,.065-.014.072a.3.3,0,0,0-.066.036,1.636,1.636,0,0,0,.726,0,2.447,2.447,0,0,0,1.017-.123c.029.036.051.087.094.015.014-.022.051-.029.08-.037a.4.4,0,0,1,.2-.022c.066.022.087-.036.138-.036a1.362,1.362,0,0,0,.247-.022,1.44,1.44,0,0,0,.138-.044.353.353,0,0,0-.16-.037q.122-.06.247-.116c-.015.021-.029.05-.058.05h.1c-.022,0-.051.065-.087.109l.733-.182c-.08-.152.087-.1.145-.188a2.233,2.233,0,0,1-.218.058c.247-.123.5-.232.748-.34a.471.471,0,0,1-.145.1.935.935,0,0,1,.094.014c.116.037.087-.072.123-.138a.677.677,0,0,0,.261-.043c.073-.022.145-.043.218-.072.116-.051.225-.116.341-.173a.33.33,0,0,1,.087,0c.08-.051.109-.095.131-.087a.164.164,0,0,0,.2-.116c.051-.037.087-.065.123-.087.16-.087.312-.174.472-.261a.3.3,0,0,0,.1-.007c.095-.044.182-.094.269-.145a.631.631,0,0,1-.073-.036.965.965,0,0,0,.138-.037,5.228,5.228,0,0,1,.6-.5c.08-.007.08-.029.08-.043a.693.693,0,0,1,.094-.109c.16-.145.334-.268.479-.42.211-.211.414-.428.6-.653a5.944,5.944,0,0,0,.494-.63c.2-.312.378-.631.559-.957.131-.232.247-.464.378-.7.014-.022.043-.051.065-.051.2-.022.392-.036.581-.058a.549.549,0,0,0,.138-.058c-.022-.036-.036-.08-.058-.116s-.073-.08-.1-.124a.694.694,0,0,1-.072-.123c-.022-.036-.044-.065-.065-.1a2.662,2.662,0,0,1-.124-.246.153.153,0,0,1-.014-.08c.131-.283.182-.587.3-.87a4.427,4.427,0,0,0,.218-.928c.051-.3.08-.594.116-.891.022-.21.051-.413.058-.623a6.02,6.02,0,0,0,.022-.957c-.007-.275-.022-.558-.036-.834Zm-18.22,8.923c-.051-.058-.094-.123-.145-.181l.022-.022c.079.087.159.174.239.268-.044-.022-.094-.036-.116-.065Zm.116.065c.022-.007.044-.007.066-.015.022.036.036.08.058.123-.1-.007-.152-.051-.123-.109Zm7.553,2.994v-.022l.406-.043v.021a3.929,3.929,0,0,1-.406.043Zm1.83-.188c-.1.022-.21.037-.312.051-.036.007-.08.043-.094-.022-.015.007-.029.007-.044.015.036.108.123.021.2.065-.16.022-.312.036-.465.058v-.014l.138-.022v-.021a2.153,2.153,0,0,0-.218-.015c-.021,0-.051.029-.072.036a.369.369,0,0,1-.094.015c-.123.007-.247.007-.363.014-.007,0-.022-.007-.029-.007v-.022l1.452-.2c.007.014.007.029.015.043a.5.5,0,0,0-.109.022Zm.109-.072c.167-.022.32-.036.48-.058-.334.094-.443.108-.479.058ZM123.874,6.671c.232-.319.472-.638.7-.964.073-.095.131-.2.2-.291a.471.471,0,0,1,.087-.073l-.007-.014a.715.715,0,0,0,.073-.095,1.392,1.392,0,0,0,.088-.188.1.1,0,0,1,.029-.028c.1.051.1-.058.138-.094q.1-.11.189-.225a1.5,1.5,0,0,0,.124-.174c.007-.022-.015-.058-.022-.087h-.021c.022-.014.044-.036.065-.051s.007,0,.014-.007c.044-.065.087-.131.131-.189a3.127,3.127,0,0,1,.283-.333c-.014.036-.029.072-.044.1.007,0,.007.007.015.007.087-.116.182-.225.269-.341-.007-.007-.015-.014-.022-.014-.036.036-.065.073-.1.109-.007-.007-.014-.015-.022-.015.073-.094.146-.188.218-.3a1.064,1.064,0,0,1,.058.109c.03-.072.059-.123.08-.174-.022.022-.05.043-.072.065l-.022-.022.131-.2c.138-.2.276-.4.414-.595.051-.072.116-.13.16-.2a7.746,7.746,0,0,1,.523-.747,1.184,1.184,0,0,1,.131-.138c.036-.044.065-.029.094.007.2.247.392.5.588.747.146.181.291.355.429.544.167.232.327.464.494.7.189.268.378.536.559.811.276.406.537.812.813,1.218.2.3.407.587.6.884h-.371c-.341-.007-.69-.036-1.031-.021-.465.022-.937.073-1.4.109-.588.051-1.184.058-1.772.058-.211,0-.422.029-.632.044-.254.014-.5.029-.756.036-.3.015-.588.022-.886.029-.167.007-.341,0-.523,0Zm8.329,3.334v.065c-.007,0-.014.007-.029.007-.029-.1-.058-.211-.094-.312a2.432,2.432,0,0,0-.283-.609c-.146-.2-.276-.413-.422-.623a1.1,1.1,0,0,0-.131-.138,2.527,2.527,0,0,0-.5-.464,5.935,5.935,0,0,0-.908-.464,2.029,2.029,0,0,1-.254-.13h.174L131,7.315c.269-.007.53-.007.8-.021a.144.144,0,0,1,.138.08c.065.109.13.217.2.326a.132.132,0,0,1,.022.058c0,.16,0,.326.007.486s.022.326.029.493-.015.341-.007.514c.007.247.015.5.015.754ZM124.39,7.578c.341-.015.668-.036,1-.051.261-.015.53-.022.791-.036a1.647,1.647,0,0,1,.32,0,2.543,2.543,0,0,0-.334.189c-.131.087-.254.2-.385.3a2.18,2.18,0,0,0-.356.333c-.138.167-.291.311-.436.471a4.421,4.421,0,0,0-.3.348c-.123.16-.232.333-.349.514.036-.689.08-1.37.051-2.066Zm4.742,6.973a5.969,5.969,0,0,1-.712.152,4.453,4.453,0,0,1-.624.022c-.189,0-.371-.007-.56-.022a1.89,1.89,0,0,1-.624-.138c-.175-.08-.356-.152-.53-.239a1.4,1.4,0,0,1-.48-.348,2.741,2.741,0,0,0-.341-.312.342.342,0,0,0,.153.21c-.036.043-.087.022-.16-.094a.4.4,0,0,1-.058.029c.022-.051.044-.1.065-.145-.029-.058-.065-.123-.094-.182q-.087-.143-.167-.29c-.015-.022-.015-.043-.029-.065a1.611,1.611,0,0,1-.1-.131,2.972,2.972,0,0,0-.181-.268c0,.022.007.043.007.073a.025.025,0,0,0-.015.007l-.153-.37c-.007,0-.007,0-.014.007l.131.479c-.007,0-.014.007-.022.007a.444.444,0,0,1-.058-.093c-.014-.058-.058-.058-.094-.037a.1.1,0,0,0-.029.087c.051.123.109.246.167.37a.866.866,0,0,0,.051.123c.007.015.029.029.029.051a1.28,1.28,0,0,0,.087.167c.065.087.138.174.2.261s.123.182.181.268c.007.015.029.015.036.022.037.109.16.188.247.145.022.167.2.225.276.384-.087-.036-.152-.065-.211-.094-.007.007-.007.014-.015.029a2.8,2.8,0,0,1,.254.138,2.238,2.238,0,0,1,.211.137.662.662,0,0,0,.312.152.078.078,0,0,0-.014-.029q.288.134.573.275c-.755.015-1.561.029-2.4.044,0-.137-.007-.268-.007-.406a1.245,1.245,0,0,0,.007-.167c-.022-.333-.022-.667-.065-.993a7.082,7.082,0,0,1-.036-1.037c.007-.188-.007-.383-.015-.572,0-.254,0-.5.008-.754a.271.271,0,0,1,.029-.1h.022c.007.015,0,.037.014.044s.059.058.073.051c.043-.029.109-.058.123-.1a.71.71,0,0,0,.051-.268.263.263,0,0,1,.058-.152.646.646,0,0,0,.037-.072c-.029-.022-.058-.036-.094-.065.029-.08.022-.174.131-.217.014-.007.014-.044.022-.065.007-.059.014-.124.022-.182a.233.233,0,0,0,.036.043.116.116,0,0,1,.015-.022c0-.029-.007-.087,0-.087.087-.015.051-.109.094-.152.007-.008-.007-.029-.007-.044s0-.036.007-.036c.1-.022.087-.131.152-.182.022-.015.029-.036.058-.072.058.1-.044.152-.051.224.123-.072.16-.246.087-.3a.428.428,0,0,0,.08-.08c.08-.087.167-.167.24-.254.051-.065.08-.145.131-.21a.417.417,0,0,1,.131-.087.883.883,0,0,0,.334-.275.42.42,0,0,1,.058-.043c.022-.015.066-.015.073-.036s-.014-.051-.029-.072c.029-.015.058-.043.116-.073-.022.043-.029.073-.044.1l.036.036c.066-.051.167-.108.233-.152,0-.007-.036-.036-.036-.036-.043.022-.109.058-.174.087.014-.022.014-.036.022-.043a2.72,2.72,0,0,1,.312-.182c.254-.115.508-.232.762-.34a.354.354,0,0,1,.153-.007.164.164,0,0,0,.058-.007c.116-.036.232-.073.348-.1a.61.61,0,0,1,.16-.021c.217.007.435.007.653.021a1.108,1.108,0,0,1,.269.058,2.723,2.723,0,0,1,.327.137,3.787,3.787,0,0,1,.356.218c.211.137.407.29.617.413a1.634,1.634,0,0,1,.494.479,2.211,2.211,0,0,1,.414.7l.109.479a.579.579,0,0,1,.051.275c-.037.182-.066.37-.095.551a.741.741,0,0,0-.022.217,1.36,1.36,0,0,1-.16.624c-.029.065-.073.131-.109.2a.219.219,0,0,0,.058.029l.065-.13c.007,0,.007,0,.015.007-.036.1-.065.21-.1.312-.087.225-.174.457-.283.674a3.621,3.621,0,0,1-.232.341c-.072.1-.13.21-.2.3a1.017,1.017,0,0,1-.218.217,5.553,5.553,0,0,1-.61.406,1.528,1.528,0,0,1-.428.16Zm-3.871-.385-.007.007a.167.167,0,0,1-.051-.029l-.174-.261a.082.082,0,0,1-.014-.072q.117.182.247.355Zm4.517.993a2.921,2.921,0,0,0,.842-.558.837.837,0,0,1,.116-.1,2.54,2.54,0,0,0,.734-.739,10.089,10.089,0,0,0,.574-1.065.755.755,0,0,1,.043-.08,16.407,16.407,0,0,0,.189,2.457l-2.5.087Zm7.363-.217c-.007.015-.022.029-.029.044a.428.428,0,0,1-.015-.066c-.044.116-.138.058-.2.058-.392.007-.791.007-1.184.007s-.762,0-1.14.007c-.124,0-.255.029-.378.036-.3.014-.6.022-.893.029-.022,0-.044-.036-.08-.065a.507.507,0,0,1-.044.065c-.008-.014-.022-.029-.037-.05a.417.417,0,0,1-.022.058H133.1a2.075,2.075,0,0,1-.044-.3c0-.217.022-.435.029-.653.007-.1,0-.2,0-.29l.08.058a.629.629,0,0,1,.044-.071.141.141,0,0,1-.029-.022c.014-.007.029-.022.029-.029a.321.321,0,0,0,.022-.058.784.784,0,0,0-.022-.138.027.027,0,0,0,.022-.008l.043.217h.022c-.029-.05.065-.094-.015-.152-.007-.007.007-.051.007-.073a1.479,1.479,0,0,1-.058-.145.179.179,0,0,1,.051-.022.66.66,0,0,0-.073-.036c.073-.065.073-.1.007-.174.015-.007.029-.007.029-.014a.894.894,0,0,0-.014-.2c-.015-.073.022-.16-.087-.2a.211.211,0,0,0,.029.058.2.2,0,0,0-.044.022c-.094-.087-.036-.2-.058-.334a1.1,1.1,0,0,1,.123.044c-.015-.051-.051-.109-.073-.174h-.029V11.9c0,.007.051.007.08.015,0-.007.007-.015.007-.022-.022-.029-.051-.058-.08-.094l.015-.015a.258.258,0,0,1-.029-.2v-.508c.073.073-.036.167.073.21v-.072h-.008c-.007-.109-.007-.217-.014-.326h-.014c-.007.015-.007.022-.015.037h-.014l.044-1.732a2.269,2.269,0,0,1,.2.275,7.567,7.567,0,0,0,.588.841c.174.239.334.5.494.747.2.3.385.594.581.891.145.225.3.45.45.667.138.2.284.384.429.573.123.167.254.333.377.5.145.2.291.406.436.6.072.1.152.2.232.3a.884.884,0,0,0,.153.137.055.055,0,0,1-.029-.007.7.7,0,0,0,.051.065c.08.044.087.087.044.152Zm.37-1.812v-.051c0,.014.007.036,0,.051Zm.247-3.2a.356.356,0,0,1-.058-.051c-.007.022,0,.043-.015.073-.007-.021-.058-.014-.058-.036-.007.1.043.2.036.3.022-.015.109-.022.131-.043a.058.058,0,0,0,.029.014c-.145.109-.109.217-.044.341.014.029.058.087.014.145-.014.015.007.058.015.094h.021v.014l-.065.022c-.014-.022-.1-.065-.1-.1v.37c.073.022.073.123.1.174a.214.214,0,0,0,.03-.058l.007.007a.867.867,0,0,1-.029.131,1.667,1.667,0,0,0-.036.188c0,.007.014.022.014.029a2.183,2.183,0,0,0-.065.572c-.022.137,0,.283-.015.428a3.617,3.617,0,0,1-.073.377c-.007.022-.022.029-.058.043a.582.582,0,0,0-.007-.225c-.008,0-.1-.051-.11-.051a2.376,2.376,0,0,0,.08.355c-.022-.007-.109-.058-.116-.058-.015.087-.015.2-.022.3-.007.073-.073.137-.08.217,0,.044.051.073.044.145h.058c0-.145.066-.275.066-.427h.021c.007.015.029.029.022.036a.941.941,0,0,0-.036.246c0,.043.036.087.022.138a.7.7,0,0,0-.029.152.4.4,0,0,1-.015-.072l-.08-.007c-.007.043.051.087.044.123-.007.007-.014.007-.029.015l-.239-.348q-.286-.415-.567-.834a1.735,1.735,0,0,1-.131-.217,10.181,10.181,0,0,0-.748-1.109c-.21-.268-.378-.558-.574-.84s-.363-.529-.544-.8c-.065-.087-.145-.166-.2-.261-.188-.3-.356-.6-.544-.9-.16-.247-.334-.486-.5-.725-.058-.08-.116-.167-.174-.254a.1.1,0,0,1-.014-.05c-.015-.16-.029-.319-.036-.471s.015-.29.015-.442v-.13c0-.036.007-.065.007-.1.007-.007.014-.021.021-.029-.211,0-.429-.008-.639,0a.355.355,0,0,1-.3-.153,12,12,0,0,1-.719-1c-.225-.319-.458-.631-.69-.943-.189-.254-.378-.5-.567-.754-.211-.29-.414-.58-.632-.87-.262-.348-.53-.7-.8-1.044-.124-.16-.262-.312-.4-.479.095.015.182.029.269.037l.349.022c.261.021.523.036.784.072.218.029.436.073.661.109a9.353,9.353,0,0,1,1.409.363c.269.087.53.2.792.312a16.144,16.144,0,0,1,1.7.834,1.706,1.706,0,0,1,.406.384c.189.2.378.391.559.594.21.239.406.486.61.732.181.217.37.435.552.652a2.257,2.257,0,0,1,.152.217c.116.174.247.341.349.529a3.078,3.078,0,0,1,.167.45c.072.225.145.442.218.667q.076.254.13.514c.029.116.022.239.058.355.044.153,0,.319.044.472.007.015.014.036.021.051.029.029.051.058.007.1a.08.08,0,0,0,0,.058.28.28,0,0,0,.037-.051c0,.015.007.022.007.029a.336.336,0,0,0,0,.087.157.157,0,0,0,.022.051.574.574,0,0,1,.058-.044,2.869,2.869,0,0,1,.073.747,1.687,1.687,0,0,1-.058.711c.021-.08-.029-.153-.007-.225Z" transform="translate(-117.346 -0.262)"/>
  <path id="Path_3" data-name="Path 3" d="M145.661,124.679a.026.026,0,0,1,.014.007l-.007-.008c0-.007,0-.007-.007,0Zm1.147,7.162a.687.687,0,0,1-.262.13c-.008-.007-.008-.015-.015-.022.08-.051.167-.1.247-.152.007.014.022.029.029.043Zm-13.616-9.823c.08-.1.16-.2.247-.3.007.007.065.022.072.029-.08.1-.189.239-.269.348-.015-.015-.037-.065-.051-.073Zm-2.063,3.553c-.058-.123-.116-.254-.174-.377a.253.253,0,0,1,.065-.029,2.507,2.507,0,0,1,.174.377.563.563,0,0,1-.065.029Zm1.852-3.48c-.044.065-.087.138-.131.2-.007-.008-.087.029-.094.021.044-.065.152-.182.2-.247a.109.109,0,0,0,.029.022Zm13.05,10.047c.007,0,.007-.007.014-.007a1.221,1.221,0,0,0,.167.014c-.095.065-.153.058-.182-.007ZM132.995,122.4a.308.308,0,0,1,.037-.065.142.142,0,0,0,.036-.007c.029-.051.029-.087.059-.13-.007-.007-.015-.007-.022-.015-.043.03-.087.066-.131.095a.04.04,0,0,1,.015.036c-.058-.007-.08.022-.109.1-.007.022-.044.029-.08.058-.007.015-.014.051-.029.087l.007.008a.108.108,0,0,1-.036.022c-.044.043-.094.08-.138.123a.215.215,0,0,0-.014.065c.051-.051.138-.145.2-.2l.007.007c.029-.043.051-.087.08-.13.007.007.007.014.014.022-.022.058-.044.123-.065.181-.015.007-.037.022-.037.015-.029.022-.051.051-.08.072l-.131.087c-.073.065-.145.123-.225.188-.051.08-.1.152-.16.247.087-.022.109.015.1.087.1.014.109-.065.138-.123.007-.015.015-.044.029-.051.065-.058.138-.108.211-.166a.1.1,0,0,0,.015-.065c0-.007-.037-.007-.059-.015.065-.073.16-.2.225-.275.036-.022.073-.051.073-.073-.007-.08.044-.1.1-.13a.08.08,0,0,1-.037-.05Z" transform="translate(-129.888 -112.189)"/>
  <path id="Path_4" data-name="Path 4" d="M129.031,57.931c-.029.051-.058.094-.087.145l-.044-.022a.431.431,0,0,1-.232.34.122.122,0,0,0,.08.022c.022-.007.036-.044.051-.065l.2-.283.066-.109-.029-.029Zm-2.418,3.182c.036,0,.073.007.116.007,0-.029.037-.022.037-.051h.022c0,.036.007.065.007.1h-.152c-.007-.007-.036-.051-.029-.058Zm-.058-.333c-.022-.022-.058-.043-.058-.065s.014-.065.036-.1c.015.051.022.094.036.145-.007.007-.015.014-.015.021Zm.182-.464c.029.073.058.153.087.226a.227.227,0,0,0-.058.029c-.029-.073-.065-.152-.094-.225a.18.18,0,0,1,.065-.029Zm16.166,6.93a1.087,1.087,0,0,1,.138-.036,1.623,1.623,0,0,0-.16.13c-.007-.007-.015-.015-.022-.015C142.873,67.3,142.888,67.275,142.9,67.246Zm-8.926-15.317c.043-.029.08-.051.123-.08l.014.014c-.044.058-.08.116-.131.188-.007-.05-.007-.08-.015-.116-.007,0,0,0,.007-.007ZM136.1,55.6l.211-.094a.557.557,0,0,0-.007.1.255.255,0,0,0-.073-.015c-.044.007-.124.065-.16.073-.007,0,.029-.058.029-.065Zm5.447,6.147c.014.072.152.109.014.181.022.015.043.022.065.037a.055.055,0,0,1-.014.029c-.015.007-.044.021-.058.014s-.022-.029-.022-.043c0-.065.007-.13.015-.217Z" transform="translate(-125.778 -47.803)"/>
</svg>
