<svg xmlns="http://www.w3.org/2000/svg" width="16.052" height="20" viewBox="0 0 16.052 20">
  <g id="Group_4" data-name="Group 4" transform="translate(0 0)">
    <path id="Subtraction_1" fill="currentColor" data-name="Subtraction 1" d="M15.047,20H15L1.58,19.4a1.011,1.011,0,0,1-.96-.967L0,1.921A1.006,1.006,0,0,1,.943.88L11.948.192l-.094,2.267a.151.151,0,0,0,.031.1.15.15,0,0,0,.21.029l.881-.668.743.586a.149.149,0,0,0,.092.032h.006a.15.15,0,0,0,.145-.155L13.88.071,14.984,0l.063,0a1.007,1.007,0,0,1,1,.943c0,.018,0,.037,0,.062V18.995A1.007,1.007,0,0,1,15.047,20ZM5.6,11.619c-.671,0-1.4.069-1.449.262a4.064,4.064,0,0,0,.872,3.172A4.438,4.438,0,0,0,8.4,16.209a4.745,4.745,0,0,0,2.94-.9,3.164,3.164,0,0,0,1.2-2.578,3.513,3.513,0,0,0-1.057-2.6A8.749,8.749,0,0,0,9.344,8.7c-1.013-.537-1.887-1-1.887-1.815A.829.829,0,0,1,8.4,5.98a.863.863,0,0,1,.666.234,1.818,1.818,0,0,1,.318,1.325c0,.142.359.223.986.223a5.39,5.39,0,0,0,2-.294,4.119,4.119,0,0,0-1.042-3.031A4.094,4.094,0,0,0,8.329,3.4a4.448,4.448,0,0,0-3.024.977,3.344,3.344,0,0,0-1.06,2.577A3.316,3.316,0,0,0,5.25,9.391a9.135,9.135,0,0,0,2.062,1.425c1.044.586,1.945,1.092,1.945,1.953a.8.8,0,0,1-.891.906.985.985,0,0,1-.751-.248,2.153,2.153,0,0,1-.326-1.546c0-.074-.19-.142-.536-.191A8.686,8.686,0,0,0,5.6,11.619Z" transform="translate(0 0)"/>
  </g>
</svg>
