<svg xmlns="http://www.w3.org/2000/svg" xmlns:xlink="http://www.w3.org/1999/xlink" width="300" height="100" viewBox="0 0 300 100">
  <defs>
    <clipPath id="clip-Web_1920_1">
      <rect width="300" height="100"/>
    </clipPath>
  </defs>
  <g id="Web_1920_1" data-name="Web 1920 – 1" clip-path="url(#clip-Web_1920_1)">
    <rect width="300" height="100" fill="rgba(255,255,255,0)"/>
    <g id="storybook-svgrepo-com" transform="translate(31 26.2)">
      <path id="Path_24" data-name="Path 24" d="M124.253,49.361a20.912,20.912,0,0,1-5.864-.819,13.889,13.889,0,0,1-4.684-2.266l1.9-4.227a14.908,14.908,0,0,0,8.72,2.7,7.515,7.515,0,0,0,3.865-.819,2.531,2.531,0,0,0,1.352-2.266,2.238,2.238,0,0,0-1.238-2.018,16.54,16.54,0,0,0-4.4-1.409,24.365,24.365,0,0,1-5.655-1.752,7.387,7.387,0,0,1-3.084-2.532,6.708,6.708,0,0,1-.971-3.713,7.313,7.313,0,0,1,1.352-4.341,9.01,9.01,0,0,1,3.789-2.989,13.736,13.736,0,0,1,5.636-1.085,18.124,18.124,0,0,1,5.5.838,11.278,11.278,0,0,1,4.208,2.247l-1.9,4.227a12.951,12.951,0,0,0-7.768-2.7,6.489,6.489,0,0,0-3.656.895,2.808,2.808,0,0,0-1.333,2.456,2.207,2.207,0,0,0,.514,1.5,4.27,4.27,0,0,0,1.714,1.047,26.182,26.182,0,0,0,3.408.952q5.179,1.142,7.445,2.932a5.958,5.958,0,0,1,2.266,4.95,7.079,7.079,0,0,1-2.932,6q-2.932,2.19-8.187,2.19Zm24.9-4.265a15.353,15.353,0,0,0,1.828-.114l-.3,4.189a16.146,16.146,0,0,1-2.209.152q-4.265,0-6.226-1.866t-1.961-5.674V34.624h-3.541v-4.3h3.541V24.837h5.75v5.484h4.684v4.3h-4.684v7.121q0,3.351,3.123,3.351Zm13.366,4.227a10.913,10.913,0,0,1-5.217-1.2,8.412,8.412,0,0,1-3.465-3.389,10.444,10.444,0,0,1-1.219-5.16,10.444,10.444,0,0,1,1.219-5.16,8.292,8.292,0,0,1,3.465-3.37,12.118,12.118,0,0,1,10.434,0,8.292,8.292,0,0,1,3.465,3.37,10.444,10.444,0,0,1,1.219,5.16,10.444,10.444,0,0,1-1.219,5.16,8.412,8.412,0,0,1-3.465,3.389,10.912,10.912,0,0,1-5.217,1.2Zm0-4.379q4.189,0,4.189-5.369a6.306,6.306,0,0,0-1.085-4.036,3.773,3.773,0,0,0-3.1-1.333q-4.189,0-4.189,5.369t4.189,5.369Zm25.818-10.358-3.237.343a5.006,5.006,0,0,0-3.389,1.352,4.357,4.357,0,0,0-.99,2.989v9.748h-5.75v-18.7H180.5v3.161q1.409-3.237,5.826-3.541L188,29.826l.343,4.76Zm16.708-4.227h5.636L199.414,55.873h-5.826l3.58-7.883-7.692-17.631h5.979l4.722,11.881,4.874-11.881Zm18.964-.5a7.664,7.664,0,0,1,7.216,4.551,11.657,11.657,0,0,1,1.047,5.084,11.91,11.91,0,0,1-1.047,5.122,8.211,8.211,0,0,1-2.932,3.465,7.63,7.63,0,0,1-4.284,1.238,7.428,7.428,0,0,1-3.5-.819,5.828,5.828,0,0,1-2.4-2.266v2.78h-5.674V22.172h5.75V32.834a5.683,5.683,0,0,1,2.38-2.19,7.521,7.521,0,0,1,3.446-.781Zm-1.676,15.08a3.718,3.718,0,0,0,3.123-1.428,6.436,6.436,0,0,0,1.1-4.017,6.034,6.034,0,0,0-1.1-3.9,3.8,3.8,0,0,0-3.123-1.352,3.759,3.759,0,0,0-3.123,1.39,6.2,6.2,0,0,0-1.1,3.941,6.268,6.268,0,0,0,1.1,3.979A3.759,3.759,0,0,0,222.338,44.944Zm22.429,4.379a10.913,10.913,0,0,1-5.217-1.2,8.412,8.412,0,0,1-3.465-3.389,10.444,10.444,0,0,1-1.219-5.16,10.444,10.444,0,0,1,1.219-5.16,8.292,8.292,0,0,1,3.465-3.37,12.118,12.118,0,0,1,10.434,0,8.292,8.292,0,0,1,3.465,3.37,10.444,10.444,0,0,1,1.219,5.16,10.444,10.444,0,0,1-1.219,5.16,8.412,8.412,0,0,1-3.465,3.389,10.913,10.913,0,0,1-5.217,1.2Zm0-4.379q4.189,0,4.189-5.369a6.306,6.306,0,0,0-1.085-4.036,3.773,3.773,0,0,0-3.1-1.333q-4.189,0-4.189,5.369T244.767,44.944Zm21.439,4.379a10.913,10.913,0,0,1-5.217-1.2,8.412,8.412,0,0,1-3.465-3.389,10.444,10.444,0,0,1-1.219-5.16,10.444,10.444,0,0,1,1.219-5.16,8.292,8.292,0,0,1,3.465-3.37,12.118,12.118,0,0,1,10.434,0,8.292,8.292,0,0,1,3.465,3.37,10.444,10.444,0,0,1,1.219,5.16,10.444,10.444,0,0,1-1.219,5.16,8.412,8.412,0,0,1-3.465,3.389,10.913,10.913,0,0,1-5.217,1.2Zm0-4.379q4.189,0,4.189-5.369a6.306,6.306,0,0,0-1.085-4.036,3.773,3.773,0,0,0-3.1-1.333q-4.189,0-4.189,5.369T266.206,44.944Zm32.644,4.075h-7.045l-7.159-8.34v8.34H278.9V22.172h5.75V38.318l6.892-7.959h6.854l-7.844,8.911Z" transform="translate(-60.85 -11.682)" fill="#8c98a4"/>
      <g id="Group_3" data-name="Group 3" transform="translate(0 0)">
        <path id="Subtraction_1" data-name="Subtraction 1" d="M-658.188-245.6l-.107,0-31.945-1.435a2.407,2.407,0,0,1-2.284-2.3L-694-288.628a2.382,2.382,0,0,1,.617-1.7,2.38,2.38,0,0,1,1.625-.783l26.192-1.637-.225,5.395a.36.36,0,0,0,.073.23.354.354,0,0,0,.284.141.352.352,0,0,0,.215-.072l2.1-1.59,1.769,1.395a.356.356,0,0,0,.218.076h.015a.354.354,0,0,0,.249-.113.354.354,0,0,0,.1-.256l-.192-5.493,2.628-.164c.05,0,.1,0,.151,0a2.4,2.4,0,0,1,2.387,2.245c0,.043,0,.089,0,.148v42.814A2.4,2.4,0,0,1-658.188-245.6Zm-22.48-19.946c-1.6,0-3.341.164-3.45.623-.231,3.283.468,5.823,2.076,7.549,1.7,1.827,4.409,2.753,8.042,2.753a11.294,11.294,0,0,0,7-2.138,7.531,7.531,0,0,0,2.856-6.136,8.36,8.36,0,0,0-2.516-6.2,20.823,20.823,0,0,0-5.1-3.4c-2.41-1.277-4.491-2.38-4.491-4.319A1.972,1.972,0,0,1-674-278.968a2.054,2.054,0,0,1,1.586.556,4.326,4.326,0,0,1,.756,3.153c0,.337.855.531,2.346.531,1.824,0,4.251-.3,4.767-.7,0-3.145-.834-5.572-2.48-7.214s-4.042-2.458-7.153-2.458a10.585,10.585,0,0,0-7.2,2.326,7.958,7.958,0,0,0-2.524,6.133,7.891,7.891,0,0,0,2.393,5.792,21.742,21.742,0,0,0,4.908,3.391c2.484,1.395,4.629,2.6,4.629,4.647a1.912,1.912,0,0,1-2.12,2.157,2.345,2.345,0,0,1-1.787-.591c-.589-.6-.828-1.739-.776-3.679,0-.176-.453-.338-1.275-.455A20.669,20.669,0,0,0-680.668-265.546Z" transform="translate(694 293.2)" fill="#8c98a4"/>
      </g>
    </g>
  </g>
</svg>
