<svg xmlns="http://www.w3.org/2000/svg" xmlns:xlink="http://www.w3.org/1999/xlink" width="300" height="100" viewBox="0 0 300 100">
  <defs>
    <clipPath id="clip-Web_1920_1">
      <rect width="300" height="100"/>
    </clipPath>
  </defs>
  <g id="Web_1920_1" data-name="Web 1920 – 1" clip-path="url(#clip-Web_1920_1)">
    <rect width="300" height="100" fill="rgba(255,255,255,0)"/>
    <g id="Group_2" data-name="Group 2" transform="translate(-1.5)">
      <text id="Style_Dictionary" data-name="Style Dictionary" transform="translate(76 60)" fill="#8c98a4" font-size="30" font-family="VistaSansOTCE-Reg, Vista Sans OTCE"><tspan x="0" y="0">Style Dictionary</tspan></text>
      <g id="style-dictionary" transform="translate(13.01 23.38)">
        <path id="Path_6" data-name="Path 6" d="M202.677,179.87v1.4h-20.37a12.511,12.511,0,0,1,2.368.519,10.641,10.641,0,0,1,7.348,10.13H181.961a2.765,2.765,0,0,0,2.084-2.663,2.664,2.664,0,0,0-2.659-2.665q0-2.287,0-4.573,0-.8-.817-.738c-.465,0-.93-.009-1.4-.009H160.533c-.144,0-.288-.006-.431-.009a23.772,23.772,0,0,1,.2-2.974,5.92,5.92,0,0,0,2.615.265,5.338,5.338,0,0,0,4.286-6.966,5.441,5.441,0,0,0-2.8-3.137,20.562,20.562,0,0,1,3.739-3.841,21.326,21.326,0,0,1,6.033-3.366,21.819,21.819,0,0,1,7.219-1.268,21.3,21.3,0,0,1,17.66,9.419,20.628,20.628,0,0,1,3.439,9.081,9.435,9.435,0,0,0,.184,1.4Z" transform="translate(-149.453 -149.324)" fill="#8c98a4"/>
        <path id="Path_7" data-name="Path 7" d="M10.648,479.83c.144,0,.287.009.431.009H29.72c.465,0,.93.006,1.4.009a1.719,1.719,0,0,1-.555.073,10.521,10.521,0,0,0-6.731,3.67,10.355,10.355,0,0,0-2.532,6.9,6.488,6.488,0,0,0,.077,1.392,10.639,10.639,0,0,0,8.24,8.992c.416.1.836.172,1.254.257q-15.293,0-30.586.006c-.232,0-.293-.037-.293-.286Q0,490.346,0,479.84q2.372,0,4.744,0,2.953,0,5.906-.009Z" transform="translate(0 -447.897)" fill="#fefefe" opacity="0"/>
        <path id="Path_8" data-name="Path 8" d="M10.76,32.026q-2.953,0-5.906.009-2.372,0-4.744,0v-1.6a.429.429,0,0,0,.061-.286A29.872,29.872,0,0,1,.957,24.7,32.079,32.079,0,0,1,16.877,3.929,31.421,31.421,0,0,1,29.3.215,4.5,4.5,0,0,0,30.449.1h1.6q0,5.32.008,10.639a21.788,21.788,0,0,0-7.219,1.268A21.326,21.326,0,0,0,18.8,15.373a20.582,20.582,0,0,0-3.739,3.841c-.053-.018-.106-.033-.157-.053A5.276,5.276,0,0,0,8.777,20.6a5.351,5.351,0,0,0-.6,6.051,5.58,5.58,0,0,0,2.786,2.4,23.765,23.765,0,0,0-.2,2.974Z" transform="translate(-0.112 -0.093)" fill="#9ba8b5"/>
        <path id="Path_9" data-name="Path 9" d="M479.988,10.645q0-5.32-.008-10.639,10.513,0,21.025-.006c.228,0,.273.045.272.272q-.011,15.136-.006,30.273a9.263,9.263,0,0,1-.184-1.4,20.628,20.628,0,0,0-3.439-9.081,21.3,21.3,0,0,0-17.66-9.419Z" transform="translate(-448.047)" fill="#fefefe" opacity="0"/>
        <path id="Path_10" data-name="Path 10" d="M30.355.007a4.474,4.474,0,0,1-1.148.115A31.414,31.414,0,0,0,16.783,3.835,32.079,32.079,0,0,0,.862,24.609a29.831,29.831,0,0,0-.785,5.45.429.429,0,0,1-.061.286Q.017,15.318.01.289C.009.049.059,0,.3,0Q15.327.011,30.355.007Z" transform="translate(-0.019)" fill="#fefefe" opacity="0"/>
        <path id="Path_11" data-name="Path 11" d="M503.536,490.629a10.641,10.641,0,0,0-7.348-10.13,12.5,12.5,0,0,0-2.368-.519h20.37v1.264c-.069.072-.055.164-.063.251-.05.506-.078,1.016-.154,1.519a21.311,21.311,0,0,1-16.818,17.825,8.733,8.733,0,0,1-2,.27c.073-.146.228-.124.348-.156a10.477,10.477,0,0,0,5.83-3.839,10.294,10.294,0,0,0,2.2-6.485Z" transform="translate(-460.966 -448.037)" fill="#9ba8b5"/>
        <path id="Path_12" data-name="Path 12" d="M497.193,518.835a8.768,8.768,0,0,0,2-.27,21.311,21.311,0,0,0,16.818-17.825c.075-.5.1-1.013.154-1.519.009-.087-.005-.179.063-.251q0,9.881.007,19.761c0,.228-.045.273-.272.272Q505.98,518.991,496,519a5.756,5.756,0,0,1,.865-.128c.067.06.117.035.16-.029l.169,0Z" transform="translate(-463.001 -465.764)" fill="#fefefe" opacity="0"/>
        <path id="Path_13" data-name="Path 13" d="M481.872,650.514a5.639,5.639,0,0,0-.864.128h-1.065q0-2.66,0-5.321A5.324,5.324,0,0,0,485.264,640h5.316a10.29,10.29,0,0,1-2.2,6.485,10.474,10.474,0,0,1-5.83,3.839c-.12.031-.275.011-.348.156l-.169,0a.114.114,0,0,0-.16.029Z" transform="translate(-448.009 -597.408)" fill="#8c98a4"/>
        <path id="Path_14" data-name="Path 14" d="M330.623,645.265q0,2.66,0,5.321h-1.065c-.418-.085-.838-.162-1.254-.257a10.638,10.638,0,0,1-8.24-8.992,6.49,6.49,0,0,1-.077-1.392l5.312-.005A5.316,5.316,0,0,0,330.623,645.265Z" transform="translate(-298.693 -597.352)" fill="#8c98a4"/>
        <path id="Path_15" data-name="Path 15" d="M325.492,490.7l-5.312.005a10.356,10.356,0,0,1,2.532-6.9,10.521,10.521,0,0,1,6.731-3.67,1.7,1.7,0,0,0,.555-.073q.817-.06.817.738,0,2.287,0,4.573h0a5.33,5.33,0,0,0-5.322,5.323h0Z" transform="translate(-298.881 -448.109)" fill="#9ba8b5"/>
        <path id="Path_16" data-name="Path 16" d="M114.691,290.392a5.583,5.583,0,0,1-2.786-2.4,5.351,5.351,0,0,1,.6-6.051,5.276,5.276,0,0,1,6.129-1.437c.051.021.1.035.157.053a5.443,5.443,0,0,1,2.8,3.137,5.338,5.338,0,0,1-4.286,6.966,5.92,5.92,0,0,1-2.615-.265Zm1.888-7.661a2.661,2.661,0,1,0,2.632,2.689A2.667,2.667,0,0,0,116.579,282.731Z" transform="translate(-103.844 -261.433)" fill="#9ba8b5"/>
        <path id="Path_17" data-name="Path 17" d="M405.311,607.937a5.317,5.317,0,0,1-5.321-5.325h4.919c.324.055.419-.085.411-.4-.021-.752-.007-1.5-.007-2.257h0l2.659,0a2.764,2.764,0,0,1-2.084,2.663h4.747a5.324,5.324,0,0,1-5.324,5.321Z" transform="translate(-373.38 -560.023)" fill="#9ba8b5"/>
        <path id="Path_18" data-name="Path 18" d="M482.629,562.6l-2.659,0V559.94h0a2.664,2.664,0,0,1,2.659,2.665Z" transform="translate(-448.037 -522.676)" fill="#9ba8b5"/>
        <path id="Path_19" data-name="Path 19" d="M508.97,797.287a.114.114,0,0,1,.16-.029C509.087,797.322,509.037,797.347,508.97,797.287Z" transform="translate(-475.107 -744.181)" fill="#7fd8d4"/>
        <path id="Path_20" data-name="Path 20" d="M405.3,559.931v2.662h0c-.785,0-1.571,0-2.356,0-.194,0-.333.035-.3.273a2.875,2.875,0,0,0,.685,1.518,3.1,3.1,0,0,0,1.566.87H399.98a5.33,5.33,0,0,1,5.322-5.323Z" transform="translate(-373.371 -522.667)" fill="#8c98a4"/>
        <path id="Path_21" data-name="Path 21" d="M153.768,320.029a2.661,2.661,0,1,1-2.689,2.632A2.667,2.667,0,0,1,153.768,320.029Z" transform="translate(-141.034 -298.731)" fill="#8c98a4"/>
        <path id="Path_22" data-name="Path 22" d="M442.276,602.59a3.109,3.109,0,0,1-1.566-.87,2.865,2.865,0,0,1-.685-1.518c-.035-.238.1-.274.3-.273.785,0,1.571,0,2.356,0,0,.752-.013,1.5.007,2.257.009.318-.087.458-.411.4Z" transform="translate(-410.746 -560.004)" fill="#8c98a4"/>
      </g>
    </g>
  </g>
</svg>
