<svg xmlns="http://www.w3.org/2000/svg" width="22.095" height="22.094" viewBox="0 0 22.095 22.094">
  <g id="style-dictionary" transform="translate(0.01)" fill="currentColor">
    <path id="Path_6" data-name="Path 6" d="M177.768,168.228v.58h-8.453a5.191,5.191,0,0,1,.983.215,4.416,4.416,0,0,1,3.05,4.2h-4.176a1.147,1.147,0,0,0,.865-1.1,1.106,1.106,0,0,0-1.1-1.106q0-.949,0-1.9,0-.331-.339-.306c-.193,0-.386,0-.579,0h-7.736c-.06,0-.119,0-.179,0a9.867,9.867,0,0,1,.083-1.234,2.457,2.457,0,0,0,1.085.11,2.215,2.215,0,0,0,1.779-2.891,2.258,2.258,0,0,0-1.161-1.3,8.533,8.533,0,0,1,1.552-1.594,8.85,8.85,0,0,1,2.5-1.4,9.055,9.055,0,0,1,3-.526,8.841,8.841,0,0,1,7.329,3.909,8.561,8.561,0,0,1,1.427,3.768,3.916,3.916,0,0,0,.076.581Z" transform="translate(-155.687 -155.552)"/>
    <path id="Path_7" data-name="Path 7" d="M4.413,479.83c.06,0,.119,0,.179,0h7.736c.193,0,.386,0,.579,0a.712.712,0,0,1-.23.03,4.366,4.366,0,0,0-2.793,1.523,4.3,4.3,0,0,0-1.051,2.863,2.693,2.693,0,0,0,.032.578,4.415,4.415,0,0,0,3.42,3.732c.173.039.347.071.52.107q-6.347,0-12.693,0c-.1,0-.122-.015-.122-.118q.005-4.36,0-8.719H1.962l2.451,0Z" transform="translate(0 -466.578)" opacity="0"/>
    <path id="Path_8" data-name="Path 8" d="M4.53,13.349l-2.451,0H.11V12.69a.178.178,0,0,0,.025-.119A12.4,12.4,0,0,1,.461,10.31,13.312,13.312,0,0,1,7.068,1.689,13.04,13.04,0,0,1,12.224.148,1.869,1.869,0,0,0,12.7.1h.663l0,4.415a9.042,9.042,0,0,0-3,.526,8.85,8.85,0,0,0-2.5,1.4A8.541,8.541,0,0,0,6.315,8.032c-.022-.007-.044-.014-.065-.022a2.189,2.189,0,0,0-2.544.6,2.221,2.221,0,0,0-.251,2.511,2.316,2.316,0,0,0,1.156,1,9.862,9.862,0,0,0-.083,1.234Z" transform="translate(-0.117 -0.097)"/>
    <path id="Path_9" data-name="Path 9" d="M479.983,4.418l0-4.415q4.363,0,8.725,0c.094,0,.113.019.113.113q0,6.282,0,12.563a3.845,3.845,0,0,1-.076-.581,8.56,8.56,0,0,0-1.427-3.768,8.841,8.841,0,0,0-7.329-3.909Z" transform="translate(-466.734)" opacity="0"/>
    <path id="Path_10" data-name="Path 10" d="M12.6,0a1.857,1.857,0,0,1-.476.048A13.036,13.036,0,0,0,6.971,1.592,13.312,13.312,0,0,0,.364,10.212a12.379,12.379,0,0,0-.326,2.262.178.178,0,0,1-.025.119Q.013,6.357.01.12C.01.02.03,0,.13,0Q6.367,0,12.6,0Z" transform="translate(-0.019 0)" opacity="0"/>
    <path id="Path_11" data-name="Path 11" d="M497.852,484.4a4.416,4.416,0,0,0-3.05-4.2,5.187,5.187,0,0,0-.983-.215h8.453v.525c-.028.03-.023.068-.026.1-.021.21-.033.422-.064.631a8.844,8.844,0,0,1-6.98,7.4,3.625,3.625,0,0,1-.829.112c.03-.06.094-.052.144-.065a4.348,4.348,0,0,0,2.419-1.593,4.272,4.272,0,0,0,.913-2.691Z" transform="translate(-480.192 -466.724)"/>
    <path id="Path_12" data-name="Path 12" d="M496.5,507.214a3.64,3.64,0,0,0,.828-.112,8.844,8.844,0,0,0,6.98-7.4c.031-.209.043-.42.064-.631,0-.036,0-.074.026-.1q0,4.1,0,8.2c0,.094-.018.113-.113.113q-4.141,0-8.283,0a2.393,2.393,0,0,1,.359-.053c.028.025.049.015.067-.012l.07,0Z" transform="translate(-482.311 -485.19)" opacity="0"/>
    <path id="Path_13" data-name="Path 13" d="M480.742,644.363a2.336,2.336,0,0,0-.359.053h-.442q0-1.1,0-2.208A2.209,2.209,0,0,0,482.149,640h2.206a4.27,4.27,0,0,1-.913,2.691,4.347,4.347,0,0,1-2.419,1.593c-.05.013-.114,0-.144.065l-.07,0a.047.047,0,0,0-.067.012Z" transform="translate(-466.695 -622.325)"/>
    <path id="Path_14" data-name="Path 14" d="M324.4,642.15q0,1.1,0,2.208h-.442c-.173-.035-.348-.067-.52-.107a4.415,4.415,0,0,1-3.42-3.732,2.694,2.694,0,0,1-.032-.577l2.2,0A2.206,2.206,0,0,0,324.4,642.15Z" transform="translate(-311.15 -622.266)"/>
    <path id="Path_15" data-name="Path 15" d="M322.384,484.472l-2.2,0a4.3,4.3,0,0,1,1.051-2.863,4.366,4.366,0,0,1,2.793-1.523.707.707,0,0,0,.23-.03q.339-.025.339.306,0,.949,0,1.9h0a2.212,2.212,0,0,0-2.209,2.209h0Z" transform="translate(-311.347 -466.799)"/>
    <path id="Path_16" data-name="Path 16" d="M112.671,284.355a2.317,2.317,0,0,1-1.156-1,2.221,2.221,0,0,1,.251-2.511,2.189,2.189,0,0,1,2.544-.6c.021.009.043.015.065.022a2.259,2.259,0,0,1,1.161,1.3,2.215,2.215,0,0,1-1.779,2.891,2.456,2.456,0,0,1-1.085-.11Zm.784-3.179a1.1,1.1,0,1,0,1.092,1.116A1.107,1.107,0,0,0,113.454,281.175Z" transform="translate(-108.175 -272.337)"/>
    <path id="Path_17" data-name="Path 17" d="M402.2,603.264a2.207,2.207,0,0,1-2.208-2.21h2.042c.135.023.174-.035.17-.167-.009-.312,0-.624,0-.937h1.1a1.147,1.147,0,0,1-.865,1.105h1.97a2.209,2.209,0,0,1-2.209,2.208Z" transform="translate(-388.953 -583.381)"/>
    <path id="Path_18" data-name="Path 18" d="M481.073,561.046h-1.1v-1.1h0a1.105,1.105,0,0,1,1.1,1.106Z" transform="translate(-466.724 -544.476)"/>
    <path id="Path_19" data-name="Path 19" d="M508.97,797.258a.047.047,0,0,1,.067-.012C509.019,797.272,509,797.283,508.97,797.258Z" transform="translate(-494.923 -775.219)"/>
    <path id="Path_20" data-name="Path 20" d="M402.189,559.93v1.1h0c-.326,0-.652,0-.978,0-.081,0-.138.014-.124.113a1.193,1.193,0,0,0,.284.63,1.287,1.287,0,0,0,.65.361H399.98a2.212,2.212,0,0,1,2.209-2.209Z" transform="translate(-388.943 -544.466)"/>
    <path id="Path_21" data-name="Path 21" d="M152.195,320.029a1.1,1.1,0,1,1-1.116,1.092A1.107,1.107,0,0,1,152.195,320.029Z" transform="translate(-146.916 -311.19)"/>
    <path id="Path_22" data-name="Path 22" d="M440.956,601.034a1.29,1.29,0,0,1-.65-.361,1.189,1.189,0,0,1-.284-.63c-.014-.1.043-.114.124-.113.326,0,.652,0,.978,0,0,.312-.006.624,0,.937,0,.132-.036.19-.17.167Z" transform="translate(-427.878 -583.361)"/>
  </g>
</svg>
